solid OpenSCAD_Model
  facet normal 0 0 1
    outer loop
      vertex -2.5 -9.100000000000001 2.75
      vertex 2.5 -8 2.75
      vertex -2.5 -8 2.75
    endloop
  endfacet
  facet normal 1 0 0
    outer loop
      vertex -2.5 -9.100000000000001 2.75
      vertex -2.5 -8 2.75
      vertex -2.5 -9.100000000000001 5.25
    endloop
  endfacet
  facet normal 1 0 0
    outer loop
      vertex -2.5 -8 2.75
      vertex -2.5 -8 5.25
      vertex -2.5 -9.100000000000001 5.25
    endloop
  endfacet
  facet normal 0 1 0
    outer loop
      vertex -2.5 -9.100000000000001 2.75
      vertex -2.5 -9.100000000000001 5.25
      vertex 2.5 -9.100000000000001 5.25
    endloop
  endfacet
  facet normal 0 0 -1
    outer loop
      vertex -2.5 -9.100000000000001 5.25
      vertex -2.5 -8 5.25
      vertex 2.5 -9.100000000000001 5.25
    endloop
  endfacet
  facet normal 0 0 1
    outer loop
      vertex -2.5 -9.100000000000001 2.75
      vertex 2.5 -9.100000000000001 2.75
      vertex 2.5 -8 2.75
    endloop
  endfacet
  facet normal 0 1 0
    outer loop
      vertex -2.5 -9.100000000000001 2.75
      vertex 2.5 -9.100000000000001 5.25
      vertex 2.5 -9.100000000000001 2.75
    endloop
  endfacet
  facet normal -1 0 0
    outer loop
      vertex 2.5 -9.100000000000001 2.75
      vertex 2.5 -8 5.25
      vertex 2.5 -8 2.75
    endloop
  endfacet
  facet normal -1 0 0
    outer loop
      vertex 2.5 -9.100000000000001 2.75
      vertex 2.5 -9.100000000000001 5.25
      vertex 2.5 -8 5.25
    endloop
  endfacet
  facet normal 0 0 -1
    outer loop
      vertex -2.5 -8 5.25
      vertex 2.5 -8 5.25
      vertex 2.5 -9.100000000000001 5.25
    endloop
  endfacet
  facet normal 0 0 1
    outer loop
      vertex -2.5 8 2.75
      vertex 2.5 9.100000000000001 2.75
      vertex -2.5 9.100000000000001 2.75
    endloop
  endfacet
  facet normal 1 0 0
    outer loop
      vertex -2.5 8 2.75
      vertex -2.5 9.100000000000001 2.75
      vertex -2.5 8 5.25
    endloop
  endfacet
  facet normal 0 -1 0
    outer loop
      vertex -2.5 9.100000000000001 2.75
      vertex 2.5 9.100000000000001 2.75
      vertex -2.5 9.100000000000001 5.25
    endloop
  endfacet
  facet normal 1 0 0
    outer loop
      vertex -2.5 9.100000000000001 2.75
      vertex -2.5 9.100000000000001 5.25
      vertex -2.5 8 5.25
    endloop
  endfacet
  facet normal 0 0 -1
    outer loop
      vertex -2.5 8 5.25
      vertex -2.5 9.100000000000001 5.25
      vertex 2.5 8 5.25
    endloop
  endfacet
  facet normal 0 0 1
    outer loop
      vertex -2.5 8 2.75
      vertex 2.5 8 2.75
      vertex 2.5 9.100000000000001 2.75
    endloop
  endfacet
  facet normal -1 0 0
    outer loop
      vertex 2.5 8 2.75
      vertex 2.5 9.100000000000001 5.25
      vertex 2.5 9.100000000000001 2.75
    endloop
  endfacet
  facet normal 0 -1 0
    outer loop
      vertex -2.5 9.100000000000001 5.25
      vertex 2.5 9.100000000000001 2.75
      vertex 2.5 9.100000000000001 5.25
    endloop
  endfacet
  facet normal -1 0 0
    outer loop
      vertex 2.5 8 2.75
      vertex 2.5 8 5.25
      vertex 2.5 9.100000000000001 5.25
    endloop
  endfacet
  facet normal 0 0 -1
    outer loop
      vertex -2.5 9.100000000000001 5.25
      vertex 2.5 9.100000000000001 5.25
      vertex 2.5 8 5.25
    endloop
  endfacet
  facet normal 0 0 -1
    outer loop
      vertex -16 -10 0
      vertex -13.707106781186548 -6.207106781186548 0
      vertex -13.608761429008721 -6.293353340291235 0
    endloop
  endfacet
  facet normal 0 0 -1
    outer loop
      vertex -16 -10 0
      vertex -13.608761429008721 -6.293353340291235 0
      vertex -13.5 -6.366025403784438 0
    endloop
  endfacet
  facet normal 0 0 -1
    outer loop
      vertex -16 -10 0
      vertex -13.5 -6.366025403784438 0
      vertex -13.38268343236509 -6.423879532511287 0
    endloop
  endfacet
  facet normal 0 0 -1
    outer loop
      vertex -16 -10 0
      vertex -13.38268343236509 -6.423879532511287 0
      vertex -13.25881904510252 -6.465925826289069 0
    endloop
  endfacet
  facet normal 0 0 -1
    outer loop
      vertex -16 -10 0
      vertex -13.25881904510252 -6.465925826289069 0
      vertex -13.130526192220051 -6.49144486137381 0
    endloop
  endfacet
  facet normal 0 0 -1
    outer loop
      vertex -16 -10 0
      vertex -13.130526192220051 -6.49144486137381 0
      vertex -13 -6.5 0
    endloop
  endfacet
  facet normal 0 0 -1
    outer loop
      vertex -16 -10 0
      vertex -13.965925826289068 -5.758819045102521 0
      vertex -13.923879532511286 -5.88268343236509 0
    endloop
  endfacet
  facet normal 0 0 -1
    outer loop
      vertex -16 -10 0
      vertex -13.991444861373811 -5.630526192220051 0
      vertex -13.965925826289068 -5.758819045102521 0
    endloop
  endfacet
  facet normal 0 0 -1
    outer loop
      vertex -16 -10 0
      vertex -13.793353340291235 -6.10876142900872 0
      vertex -13.707106781186548 -6.207106781186548 0
    endloop
  endfacet
  facet normal 0 0 -1
    outer loop
      vertex -16 -10 0
      vertex -13.86602540378444 -6 0
      vertex -13.793353340291235 -6.10876142900872 0
    endloop
  endfacet
  facet normal 0 0 -1
    outer loop
      vertex -16 -10 0
      vertex -13.923879532511286 -5.88268343236509 0
      vertex -13.86602540378444 -6 0
    endloop
  endfacet
  facet normal -0.6593458151000674 -0.7518398074789787 4.699606691171011e-19
    outer loop
      vertex -17.217522858017443 -9.58670668058247 0
      vertex -17.414213562373096 -9.414213562373096 6
      vertex -17.414213562373096 -9.414213562373096 0
    endloop
  endfacet
  facet normal -0.5555702330195995 -0.831469612302547 -2.067905829404184e-18
    outer loop
      vertex -17 -9.732050807568877 0
      vertex -17.217522858017443 -9.58670668058247 6
      vertex -17.217522858017443 -9.58670668058247 0
    endloop
  endfacet
  facet normal -0.7518398074789817 -0.6593458151000641 0
    outer loop
      vertex -17.414213562373096 -9.414213562373096 0
      vertex -17.414213562373096 -9.414213562373096 6
      vertex -17.58670668058247 -9.21752285801744 0
    endloop
  endfacet
  facet normal -0.8314696123025418 -0.5555702330196074 2.407258387110405e-19
    outer loop
      vertex -17.58670668058247 -9.21752285801744 0
      vertex -17.73205080756888 -9 6
      vertex -17.73205080756888 -9 0
    endloop
  endfacet
  facet normal -0.8968727415326926 -0.44228869021899286 1.2079180971744525e-21
    outer loop
      vertex -17.73205080756888 -9 0
      vertex -17.847759065022572 -8.76536686473018 6
      vertex -17.847759065022572 -8.76536686473018 0
    endloop
  endfacet
  facet normal -0.3214394653031609 -0.9469301294951059 0
    outer loop
      vertex -16.76536686473018 -9.847759065022574 0
      vertex -16.51763809020504 -9.931851652578137 0
      vertex -16.76536686473018 -9.847759065022574 6
    endloop
  endfacet
  facet normal -0.44228869021900374 -0.8968727415326871 -5.830408243228584e-19
    outer loop
      vertex -17 -9.732050807568877 0
      vertex -16.76536686473018 -9.847759065022574 0
      vertex -16.76536686473018 -9.847759065022574 6
    endloop
  endfacet
  facet normal -0.1950903220161236 -0.9807852804032313 0
    outer loop
      vertex -16.51763809020504 -9.931851652578137 0
      vertex -16.261052384440102 -9.98288972274762 0
      vertex -16.51763809020504 -9.931851652578137 6
    endloop
  endfacet
  facet normal -0.06540312923014606 -0.9978589232386034 1.9133804881697227e-19
    outer loop
      vertex -16.261052384440102 -9.98288972274762 0
      vertex -16 -10 0
      vertex -16 -10 6
    endloop
  endfacet
  facet normal -0.9469301294951054 -0.321439465303163 0
    outer loop
      vertex -17.847759065022572 -8.76536686473018 0
      vertex -17.847759065022572 -8.76536686473018 6
      vertex -17.931851652578136 -8.517638090205041 0
    endloop
  endfacet
  facet normal -0.9807852804032291 -0.1950903220161354 4.1025886007118013e-19
    outer loop
      vertex -17.931851652578136 -8.517638090205041 0
      vertex -17.982889722747622 -8.261052384440102 6
      vertex -17.982889722747622 -8.261052384440102 0
    endloop
  endfacet
  facet normal -0.9978589232386038 -0.0654031292301393 0
    outer loop
      vertex -17.982889722747622 -8.261052384440102 0
      vertex -17.982889722747622 -8.261052384440102 6
      vertex -18 -8 0
    endloop
  endfacet
  facet normal 0 0 -1
    outer loop
      vertex -17.217522858017443 -9.58670668058247 0
      vertex -17.414213562373096 -9.414213562373096 0
      vertex -16.261052384440102 9.98288972274762 0
    endloop
  endfacet
  facet normal 0 0 -1
    outer loop
      vertex -17.414213562373096 -9.414213562373096 0
      vertex -17.58670668058247 -9.21752285801744 0
      vertex -16.261052384440102 9.98288972274762 0
    endloop
  endfacet
  facet normal 0 0 -1
    outer loop
      vertex -17.58670668058247 -9.21752285801744 0
      vertex -17.73205080756888 -9 0
      vertex -16.261052384440102 9.98288972274762 0
    endloop
  endfacet
  facet normal 0 0 -1
    outer loop
      vertex -17.73205080756888 -9 0
      vertex -17.847759065022572 -8.76536686473018 0
      vertex -16.261052384440102 9.98288972274762 0
    endloop
  endfacet
  facet normal 0 0 -1
    outer loop
      vertex -17 -9.732050807568877 0
      vertex -16.261052384440102 9.98288972274762 0
      vertex -16.76536686473018 -9.847759065022574 0
    endloop
  endfacet
  facet normal 0 0 -1
    outer loop
      vertex -16.51763809020504 -9.931851652578137 0
      vertex -16.261052384440102 9.98288972274762 0
      vertex -16.261052384440102 -9.98288972274762 0
    endloop
  endfacet
  facet normal 0 0 -1
    outer loop
      vertex -16.76536686473018 -9.847759065022574 0
      vertex -16.261052384440102 9.98288972274762 0
      vertex -16.51763809020504 -9.931851652578137 0
    endloop
  endfacet
  facet normal 0 0 -1
    outer loop
      vertex -16.261052384440102 -9.98288972274762 0
      vertex -16.261052384440102 9.98288972274762 0
      vertex -16 -10 0
    endloop
  endfacet
  facet normal 0 0 -1
    outer loop
      vertex -17 -9.732050807568877 0
      vertex -17.217522858017443 -9.58670668058247 0
      vertex -16.261052384440102 9.98288972274762 0
    endloop
  endfacet
  facet normal 0 0 -1
    outer loop
      vertex -17.847759065022572 -8.76536686473018 0
      vertex -17.931851652578136 -8.517638090205041 0
      vertex -16.261052384440102 9.98288972274762 0
    endloop
  endfacet
  facet normal 0 0 -1
    outer loop
      vertex -17.931851652578136 -8.517638090205041 0
      vertex -17.982889722747622 -8.261052384440102 0
      vertex -16.261052384440102 9.98288972274762 0
    endloop
  endfacet
  facet normal 0 0 -1
    outer loop
      vertex -17.982889722747622 -8.261052384440102 0
      vertex -18 -8 0
      vertex -16.261052384440102 9.98288972274762 0
    endloop
  endfacet
  facet normal 0 0 -1
    outer loop
      vertex -16 -10 0
      vertex -16.261052384440102 9.98288972274762 0
      vertex -13.991444861373811 -5.630526192220051 0
    endloop
  endfacet
  facet normal 0 0 -1
    outer loop
      vertex -16.261052384440102 9.98288972274762 0
      vertex -14 -5.5 0
      vertex -13.991444861373811 -5.630526192220051 0
    endloop
  endfacet
  facet normal 0 0 -1
    outer loop
      vertex -16 -10 0
      vertex -13 -6.5 0
      vertex 13 -6.5 0
    endloop
  endfacet
  facet normal 0 -1 0
    outer loop
      vertex -16 -10 0
      vertex 16 -10 0
      vertex -16 -10 6
    endloop
  endfacet
  facet normal -0.44228869021900374 -0.8968727415326871 0
    outer loop
      vertex -17 -9.732050807568877 0
      vertex -16.76536686473018 -9.847759065022574 6
      vertex -17 -9.732050807568877 6
    endloop
  endfacet
  facet normal -0.6593458151000674 -0.7518398074789787 0
    outer loop
      vertex -17.217522858017443 -9.58670668058247 0
      vertex -17.217522858017443 -9.58670668058247 6
      vertex -17.414213562373096 -9.414213562373096 6
    endloop
  endfacet
  facet normal -0.5555702330195995 -0.831469612302547 0
    outer loop
      vertex -17 -9.732050807568877 0
      vertex -17 -9.732050807568877 6
      vertex -17.217522858017443 -9.58670668058247 6
    endloop
  endfacet
  facet normal -0.7518398074789817 -0.6593458151000641 0
    outer loop
      vertex -17.58670668058247 -9.21752285801744 0
      vertex -17.414213562373096 -9.414213562373096 6
      vertex -17.58670668058247 -9.21752285801744 6
    endloop
  endfacet
  facet normal -0.8314696123025418 -0.5555702330196074 0
    outer loop
      vertex -17.58670668058247 -9.21752285801744 0
      vertex -17.58670668058247 -9.21752285801744 6
      vertex -17.73205080756888 -9 6
    endloop
  endfacet
  facet normal -0.8968727415326926 -0.44228869021899286 0
    outer loop
      vertex -17.73205080756888 -9 0
      vertex -17.73205080756888 -9 6
      vertex -17.847759065022572 -8.76536686473018 6
    endloop
  endfacet
  facet normal -0.3214394653031609 -0.9469301294951059 0
    outer loop
      vertex -16.51763809020504 -9.931851652578137 0
      vertex -16.51763809020504 -9.931851652578137 6
      vertex -16.76536686473018 -9.847759065022574 6
    endloop
  endfacet
  facet normal -0.1950903220161236 -0.9807852804032313 0
    outer loop
      vertex -16.261052384440102 -9.98288972274762 0
      vertex -16.261052384440102 -9.98288972274762 6
      vertex -16.51763809020504 -9.931851652578137 6
    endloop
  endfacet
  facet normal -0.06540312923014606 -0.9978589232386034 0
    outer loop
      vertex -16.261052384440102 -9.98288972274762 0
      vertex -16 -10 6
      vertex -16.261052384440102 -9.98288972274762 6
    endloop
  endfacet
  facet normal -0.9469301294951054 -0.321439465303163 0
    outer loop
      vertex -17.931851652578136 -8.517638090205041 0
      vertex -17.847759065022572 -8.76536686473018 6
      vertex -17.931851652578136 -8.517638090205041 6
    endloop
  endfacet
  facet normal -0.9807852804032291 -0.1950903220161354 0
    outer loop
      vertex -17.931851652578136 -8.517638090205041 0
      vertex -17.931851652578136 -8.517638090205041 6
      vertex -17.982889722747622 -8.261052384440102 6
    endloop
  endfacet
  facet normal -0.9978589232386038 -0.0654031292301393 0
    outer loop
      vertex -18 -8 0
      vertex -17.982889722747622 -8.261052384440102 6
      vertex -18 -8 6
    endloop
  endfacet
  facet normal 0 0 1
    outer loop
      vertex -17.217522858017443 -9.58670668058247 6
      vertex -16 -8 6
      vertex -17.414213562373096 -9.414213562373096 6
    endloop
  endfacet
  facet normal 0 0 1
    outer loop
      vertex -17.414213562373096 -9.414213562373096 6
      vertex -16 -8 6
      vertex -17.58670668058247 -9.21752285801744 6
    endloop
  endfacet
  facet normal 0 0 1
    outer loop
      vertex -17 -9.732050807568877 6
      vertex -16 -8 6
      vertex -17.217522858017443 -9.58670668058247 6
    endloop
  endfacet
  facet normal 0 0 1
    outer loop
      vertex -16.76536686473018 -9.847759065022574 6
      vertex -16.51763809020504 -9.931851652578137 6
      vertex -16 -8 6
    endloop
  endfacet
  facet normal 0 0 1
    outer loop
      vertex -17 -9.732050807568877 6
      vertex -16.76536686473018 -9.847759065022574 6
      vertex -16 -8 6
    endloop
  endfacet
  facet normal 0 0 1
    outer loop
      vertex -16.51763809020504 -9.931851652578137 6
      vertex -16.261052384440102 -9.98288972274762 6
      vertex -16 -8 6
    endloop
  endfacet
  facet normal 0 0 1
    outer loop
      vertex -16.261052384440102 -9.98288972274762 6
      vertex -16 -10 6
      vertex -16 -8 6
    endloop
  endfacet
  facet normal 0 0 1
    outer loop
      vertex -17.73205080756888 -9 6
      vertex -16 -8 6
      vertex -17.847759065022572 -8.76536686473018 6
    endloop
  endfacet
  facet normal 0 0 1
    outer loop
      vertex -17.58670668058247 -9.21752285801744 6
      vertex -16 -8 6
      vertex -17.73205080756888 -9 6
    endloop
  endfacet
  facet normal -1 0 0
    outer loop
      vertex -18 -8 0
      vertex -18 -8 6
      vertex -18 8 6
    endloop
  endfacet
  facet normal 0 0 1
    outer loop
      vertex -17.847759065022572 -8.76536686473018 6
      vertex -16 8 6
      vertex -17.931851652578136 -8.517638090205041 6
    endloop
  endfacet
  facet normal 0 0 1
    outer loop
      vertex -17.931851652578136 -8.517638090205041 6
      vertex -16 8 6
      vertex -17.982889722747622 -8.261052384440102 6
    endloop
  endfacet
  facet normal 0 0 1
    outer loop
      vertex -17.982889722747622 -8.261052384440102 6
      vertex -16 8 6
      vertex -18 -8 6
    endloop
  endfacet
  facet normal 0 0 1
    outer loop
      vertex -17.847759065022572 -8.76536686473018 6
      vertex -16 -8 6
      vertex -16 8 6
    endloop
  endfacet
  facet normal 0 0 1
    outer loop
      vertex -16 -10 6
      vertex 16 -10 6
      vertex -16 -8 6
    endloop
  endfacet
  facet normal 0 0 -1
    outer loop
      vertex -18 -8 0
      vertex -18 8 0
      vertex -16.261052384440102 9.98288972274762 0
    endloop
  endfacet
  facet normal 0 0 -1
    outer loop
      vertex -16.261052384440102 9.98288972274762 0
      vertex -14 5.5 0
      vertex -14 -5.5 0
    endloop
  endfacet
  facet normal -1 0 0
    outer loop
      vertex -18 -8 0
      vertex -18 8 6
      vertex -18 8 0
    endloop
  endfacet
  facet normal 0 0 -1
    outer loop
      vertex -16.261052384440102 9.98288972274762 0
      vertex -13.991444861373811 5.630526192220051 0
      vertex -14 5.5 0
    endloop
  endfacet
  facet normal 0 0 -1
    outer loop
      vertex -16.261052384440102 9.98288972274762 0
      vertex -13.965925826289068 5.758819045102521 0
      vertex -13.991444861373811 5.630526192220051 0
    endloop
  endfacet
  facet normal 0 0 -1
    outer loop
      vertex -16.261052384440102 9.98288972274762 0
      vertex -13.923879532511286 5.88268343236509 0
      vertex -13.965925826289068 5.758819045102521 0
    endloop
  endfacet
  facet normal 0 0 -1
    outer loop
      vertex -16.261052384440102 9.98288972274762 0
      vertex -13.86602540378444 6 0
      vertex -13.923879532511286 5.88268343236509 0
    endloop
  endfacet
  facet normal 0 0 -1
    outer loop
      vertex -16.261052384440102 9.98288972274762 0
      vertex -13.793353340291235 6.10876142900872 0
      vertex -13.86602540378444 6 0
    endloop
  endfacet
  facet normal 0 0 -1
    outer loop
      vertex -16.261052384440102 9.98288972274762 0
      vertex -13.707106781186548 6.207106781186548 0
      vertex -13.793353340291235 6.10876142900872 0
    endloop
  endfacet
  facet normal 0 0 -1
    outer loop
      vertex -16.261052384440102 9.98288972274762 0
      vertex -13.608761429008721 6.293353340291235 0
      vertex -13.707106781186548 6.207106781186548 0
    endloop
  endfacet
  facet normal 0 0 -1
    outer loop
      vertex -18 8 0
      vertex -17.982889722747622 8.261052384440102 0
      vertex -16.261052384440102 9.98288972274762 0
    endloop
  endfacet
  facet normal 0 0 -1
    outer loop
      vertex -17.982889722747622 8.261052384440102 0
      vertex -17.931851652578136 8.517638090205041 0
      vertex -16.261052384440102 9.98288972274762 0
    endloop
  endfacet
  facet normal 0 0 -1
    outer loop
      vertex -17.931851652578136 8.517638090205041 0
      vertex -17.847759065022572 8.76536686473018 0
      vertex -16.261052384440102 9.98288972274762 0
    endloop
  endfacet
  facet normal 0 0 -1
    outer loop
      vertex -17.847759065022572 8.76536686473018 0
      vertex -17.73205080756888 9 0
      vertex -16.261052384440102 9.98288972274762 0
    endloop
  endfacet
  facet normal 0 0 -1
    outer loop
      vertex -17.73205080756888 9 0
      vertex -17.58670668058247 9.21752285801744 0
      vertex -16.261052384440102 9.98288972274762 0
    endloop
  endfacet
  facet normal 0 0 -1
    outer loop
      vertex -17.58670668058247 9.21752285801744 0
      vertex -17.414213562373096 9.414213562373096 0
      vertex -16.261052384440102 9.98288972274762 0
    endloop
  endfacet
  facet normal 0 0 -1
    outer loop
      vertex -17.414213562373096 9.414213562373096 0
      vertex -17.217522858017443 9.58670668058247 0
      vertex -16.261052384440102 9.98288972274762 0
    endloop
  endfacet
  facet normal 0 0 -1
    outer loop
      vertex -17.217522858017443 9.58670668058247 0
      vertex -17 9.732050807568877 0
      vertex -16.261052384440102 9.98288972274762 0
    endloop
  endfacet
  facet normal 0 0 -1
    outer loop
      vertex -17 9.732050807568877 0
      vertex -16.76536686473018 9.847759065022574 0
      vertex -16.261052384440102 9.98288972274762 0
    endloop
  endfacet
  facet normal 0 0 -1
    outer loop
      vertex -16.76536686473018 9.847759065022574 0
      vertex -16.51763809020504 9.931851652578137 0
      vertex -16.261052384440102 9.98288972274762 0
    endloop
  endfacet
  facet normal 0 0 -1
    outer loop
      vertex -16.261052384440102 9.98288972274762 0
      vertex -13.5 6.366025403784438 0
      vertex -13.608761429008721 6.293353340291235 0
    endloop
  endfacet
  facet normal 0 0 -1
    outer loop
      vertex -16.261052384440102 9.98288972274762 0
      vertex -13.38268343236509 6.423879532511287 0
      vertex -13.5 6.366025403784438 0
    endloop
  endfacet
  facet normal 0 0 -1
    outer loop
      vertex -16.261052384440102 9.98288972274762 0
      vertex -13.25881904510252 6.465925826289069 0
      vertex -13.38268343236509 6.423879532511287 0
    endloop
  endfacet
  facet normal 0 0 -1
    outer loop
      vertex -16.261052384440102 9.98288972274762 0
      vertex -13.130526192220051 6.49144486137381 0
      vertex -13.25881904510252 6.465925826289069 0
    endloop
  endfacet
  facet normal 0 0 -1
    outer loop
      vertex -16.261052384440102 9.98288972274762 0
      vertex -13 6.5 0
      vertex -13.130526192220051 6.49144486137381 0
    endloop
  endfacet
  facet normal -0.9978589232386038 0.0654031292301393 1.0194919100850713e-20
    outer loop
      vertex -18 8 0
      vertex -17.982889722747622 8.261052384440102 6
      vertex -17.982889722747622 8.261052384440102 0
    endloop
  endfacet
  facet normal -0.9807852804032291 0.1950903220161354 0
    outer loop
      vertex -17.982889722747622 8.261052384440102 0
      vertex -17.982889722747622 8.261052384440102 6
      vertex -17.931851652578136 8.517638090205041 0
    endloop
  endfacet
  facet normal -0.9469301294951054 0.321439465303163 9.037291769064866e-19
    outer loop
      vertex -17.931851652578136 8.517638090205041 0
      vertex -17.847759065022572 8.76536686473018 6
      vertex -17.847759065022572 8.76536686473018 0
    endloop
  endfacet
  facet normal -0.8968727415326926 0.44228869021899286 0
    outer loop
      vertex -17.847759065022572 8.76536686473018 0
      vertex -17.847759065022572 8.76536686473018 6
      vertex -17.73205080756888 9 0
    endloop
  endfacet
  facet normal -0.8314696123025418 0.5555702330196074 -2.407258387110405e-19
    outer loop
      vertex -17.73205080756888 9 0
      vertex -17.58670668058247 9.21752285801744 6
      vertex -17.58670668058247 9.21752285801744 0
    endloop
  endfacet
  facet normal -0.7518398074789817 0.6593458151000641 0
    outer loop
      vertex -17.58670668058247 9.21752285801744 0
      vertex -17.58670668058247 9.21752285801744 6
      vertex -17.414213562373096 9.414213562373096 0
    endloop
  endfacet
  facet normal -0.6593458151000674 0.7518398074789787 0
    outer loop
      vertex -17.414213562373096 9.414213562373096 0
      vertex -17.414213562373096 9.414213562373096 6
      vertex -17.217522858017443 9.58670668058247 0
    endloop
  endfacet
  facet normal -0.5555702330195995 0.831469612302547 2.067905829404184e-18
    outer loop
      vertex -17.217522858017443 9.58670668058247 0
      vertex -17 9.732050807568877 6
      vertex -17 9.732050807568877 0
    endloop
  endfacet
  facet normal -0.44228869021900374 0.8968727415326871 5.830408243228584e-19
    outer loop
      vertex -17 9.732050807568877 0
      vertex -16.76536686473018 9.847759065022574 6
      vertex -16.76536686473018 9.847759065022574 0
    endloop
  endfacet
  facet normal -0.3214394653031609 0.9469301294951059 0
    outer loop
      vertex -16.76536686473018 9.847759065022574 0
      vertex -16.76536686473018 9.847759065022574 6
      vertex -16.51763809020504 9.931851652578137 0
    endloop
  endfacet
  facet normal -0.1950903220161236 0.9807852804032313 0
    outer loop
      vertex -16.51763809020504 9.931851652578137 0
      vertex -16.51763809020504 9.931851652578137 6
      vertex -16.261052384440102 9.98288972274762 0
    endloop
  endfacet
  facet normal -0.06540312923014606 0.9978589232386034 -1.9133804881697227e-19
    outer loop
      vertex -16.261052384440102 9.98288972274762 0
      vertex -16 10 6
      vertex -16 10 0
    endloop
  endfacet
  facet normal 0 0 -1
    outer loop
      vertex -16.261052384440102 9.98288972274762 0
      vertex -16 10 0
      vertex 16 10 0
    endloop
  endfacet
  facet normal 0 0 -1
    outer loop
      vertex -16.261052384440102 9.98288972274762 0
      vertex 18 8 0
      vertex -13 6.5 0
    endloop
  endfacet
  facet normal 0 0 1
    outer loop
      vertex -18 -8 6
      vertex -16 8 6
      vertex -18 8 6
    endloop
  endfacet
  facet normal -0.9978589232386038 0.0654031292301393 0
    outer loop
      vertex -18 8 0
      vertex -18 8 6
      vertex -17.982889722747622 8.261052384440102 6
    endloop
  endfacet
  facet normal -0.9807852804032291 0.1950903220161354 0
    outer loop
      vertex -17.931851652578136 8.517638090205041 0
      vertex -17.982889722747622 8.261052384440102 6
      vertex -17.931851652578136 8.517638090205041 6
    endloop
  endfacet
  facet normal -0.9469301294951054 0.321439465303163 0
    outer loop
      vertex -17.931851652578136 8.517638090205041 0
      vertex -17.931851652578136 8.517638090205041 6
      vertex -17.847759065022572 8.76536686473018 6
    endloop
  endfacet
  facet normal -0.8968727415326926 0.44228869021899286 0
    outer loop
      vertex -17.73205080756888 9 0
      vertex -17.847759065022572 8.76536686473018 6
      vertex -17.73205080756888 9 6
    endloop
  endfacet
  facet normal -0.8314696123025418 0.5555702330196074 0
    outer loop
      vertex -17.73205080756888 9 0
      vertex -17.73205080756888 9 6
      vertex -17.58670668058247 9.21752285801744 6
    endloop
  endfacet
  facet normal -0.7518398074789817 0.6593458151000641 0
    outer loop
      vertex -17.414213562373096 9.414213562373096 0
      vertex -17.58670668058247 9.21752285801744 6
      vertex -17.414213562373096 9.414213562373096 6
    endloop
  endfacet
  facet normal -0.6593458151000674 0.7518398074789787 0
    outer loop
      vertex -17.217522858017443 9.58670668058247 0
      vertex -17.414213562373096 9.414213562373096 6
      vertex -17.217522858017443 9.58670668058247 6
    endloop
  endfacet
  facet normal -0.5555702330195995 0.831469612302547 0
    outer loop
      vertex -17.217522858017443 9.58670668058247 0
      vertex -17.217522858017443 9.58670668058247 6
      vertex -17 9.732050807568877 6
    endloop
  endfacet
  facet normal -0.44228869021900374 0.8968727415326871 0
    outer loop
      vertex -17 9.732050807568877 0
      vertex -17 9.732050807568877 6
      vertex -16.76536686473018 9.847759065022574 6
    endloop
  endfacet
  facet normal -0.3214394653031609 0.9469301294951059 0
    outer loop
      vertex -16.51763809020504 9.931851652578137 0
      vertex -16.76536686473018 9.847759065022574 6
      vertex -16.51763809020504 9.931851652578137 6
    endloop
  endfacet
  facet normal -0.1950903220161236 0.9807852804032313 0
    outer loop
      vertex -16.261052384440102 9.98288972274762 0
      vertex -16.51763809020504 9.931851652578137 6
      vertex -16.261052384440102 9.98288972274762 6
    endloop
  endfacet
  facet normal -0.06540312923014606 0.9978589232386034 0
    outer loop
      vertex -16.261052384440102 9.98288972274762 0
      vertex -16.261052384440102 9.98288972274762 6
      vertex -16 10 6
    endloop
  endfacet
  facet normal 0 1 0
    outer loop
      vertex -16 10 0
      vertex -16 10 6
      vertex 16 10 6
    endloop
  endfacet
  facet normal 0 0 1
    outer loop
      vertex -18 8 6
      vertex 16.261052384440102 9.98288972274762 6
      vertex -17.982889722747622 8.261052384440102 6
    endloop
  endfacet
  facet normal 0 0 1
    outer loop
      vertex -18 8 6
      vertex -16 8 6
      vertex 16.261052384440102 9.98288972274762 6
    endloop
  endfacet
  facet normal 0 0 1
    outer loop
      vertex -17.982889722747622 8.261052384440102 6
      vertex 16.261052384440102 9.98288972274762 6
      vertex -17.931851652578136 8.517638090205041 6
    endloop
  endfacet
  facet normal 0 0 1
    outer loop
      vertex -17.931851652578136 8.517638090205041 6
      vertex 16.261052384440102 9.98288972274762 6
      vertex -17.847759065022572 8.76536686473018 6
    endloop
  endfacet
  facet normal 0 0 1
    outer loop
      vertex -17.847759065022572 8.76536686473018 6
      vertex 16.261052384440102 9.98288972274762 6
      vertex -17.73205080756888 9 6
    endloop
  endfacet
  facet normal 0 0 1
    outer loop
      vertex -17.73205080756888 9 6
      vertex 16.261052384440102 9.98288972274762 6
      vertex -17.58670668058247 9.21752285801744 6
    endloop
  endfacet
  facet normal 0 0 1
    outer loop
      vertex -17.58670668058247 9.21752285801744 6
      vertex 16.261052384440102 9.98288972274762 6
      vertex -17.414213562373096 9.414213562373096 6
    endloop
  endfacet
  facet normal 0 0 1
    outer loop
      vertex -17.414213562373096 9.414213562373096 6
      vertex 16.261052384440102 9.98288972274762 6
      vertex -17.217522858017443 9.58670668058247 6
    endloop
  endfacet
  facet normal 0 0 1
    outer loop
      vertex -17.217522858017443 9.58670668058247 6
      vertex 16.261052384440102 9.98288972274762 6
      vertex -17 9.732050807568877 6
    endloop
  endfacet
  facet normal 0 0 1
    outer loop
      vertex -17 9.732050807568877 6
      vertex 16.261052384440102 9.98288972274762 6
      vertex -16.76536686473018 9.847759065022574 6
    endloop
  endfacet
  facet normal 0 0 1
    outer loop
      vertex -16.76536686473018 9.847759065022574 6
      vertex 16.261052384440102 9.98288972274762 6
      vertex -16.51763809020504 9.931851652578137 6
    endloop
  endfacet
  facet normal 0 0 1
    outer loop
      vertex -16.51763809020504 9.931851652578137 6
      vertex 16.261052384440102 9.98288972274762 6
      vertex -16.261052384440102 9.98288972274762 6
    endloop
  endfacet
  facet normal 0 0 1
    outer loop
      vertex -16.261052384440102 9.98288972274762 6
      vertex 16.261052384440102 9.98288972274762 6
      vertex -16 10 6
    endloop
  endfacet
  facet normal 0 0 -1
    outer loop
      vertex -16 -10 0
      vertex 13 -6.5 0
      vertex 16 -10 0
    endloop
  endfacet
  facet normal 0 0 -1
    outer loop
      vertex 16 -10 0
      vertex 13 -6.5 0
      vertex 16.261052384440102 -9.98288972274762 0
    endloop
  endfacet
  facet normal 0 0 -1
    outer loop
      vertex 16.261052384440102 -9.98288972274762 0
      vertex 13 -6.5 0
      vertex 16.51763809020504 -9.931851652578137 0
    endloop
  endfacet
  facet normal 0 0 -1
    outer loop
      vertex 16.51763809020504 -9.931851652578137 0
      vertex 13 -6.5 0
      vertex 16.76536686473018 -9.847759065022574 0
    endloop
  endfacet
  facet normal 0 0 -1
    outer loop
      vertex 16.76536686473018 -9.847759065022574 0
      vertex 13 -6.5 0
      vertex 17 -9.732050807568877 0
    endloop
  endfacet
  facet normal 0 0 -1
    outer loop
      vertex 17 -9.732050807568877 0
      vertex 13 -6.5 0
      vertex 17.217522858017443 -9.58670668058247 0
    endloop
  endfacet
  facet normal 0 0 -1
    outer loop
      vertex 17.217522858017443 -9.58670668058247 0
      vertex 13 -6.5 0
      vertex 17.414213562373096 -9.414213562373096 0
    endloop
  endfacet
  facet normal 0 0 -1
    outer loop
      vertex 17.414213562373096 -9.414213562373096 0
      vertex 13 -6.5 0
      vertex 17.58670668058247 -9.21752285801744 0
    endloop
  endfacet
  facet normal 0 0 -1
    outer loop
      vertex 17.58670668058247 -9.21752285801744 0
      vertex 13.25881904510252 -6.465925826289069 0
      vertex 17.73205080756888 -9 0
    endloop
  endfacet
  facet normal 0 0 -1
    outer loop
      vertex 17.73205080756888 -9 0
      vertex 13.5 -6.366025403784438 0
      vertex 17.847759065022572 -8.76536686473018 0
    endloop
  endfacet
  facet normal 0 0 -1
    outer loop
      vertex 17.847759065022572 -8.76536686473018 0
      vertex 13.608761429008721 -6.293353340291235 0
      vertex 17.931851652578136 -8.517638090205041 0
    endloop
  endfacet
  facet normal 0 0 -1
    outer loop
      vertex 17.931851652578136 -8.517638090205041 0
      vertex 13.707106781186548 -6.207106781186548 0
      vertex 17.982889722747622 -8.261052384440102 0
    endloop
  endfacet
  facet normal 0 0 -1
    outer loop
      vertex 17.58670668058247 -9.21752285801744 0
      vertex 13 -6.5 0
      vertex 13.130526192220051 -6.49144486137381 0
    endloop
  endfacet
  facet normal 0 0 -1
    outer loop
      vertex 17.58670668058247 -9.21752285801744 0
      vertex 13.130526192220051 -6.49144486137381 0
      vertex 13.25881904510252 -6.465925826289069 0
    endloop
  endfacet
  facet normal 0 0 -1
    outer loop
      vertex 17.73205080756888 -9 0
      vertex 13.25881904510252 -6.465925826289069 0
      vertex 13.38268343236509 -6.423879532511287 0
    endloop
  endfacet
  facet normal 0 0 -1
    outer loop
      vertex 17.73205080756888 -9 0
      vertex 13.38268343236509 -6.423879532511287 0
      vertex 13.5 -6.366025403784438 0
    endloop
  endfacet
  facet normal 0 0 -1
    outer loop
      vertex 17.847759065022572 -8.76536686473018 0
      vertex 13.5 -6.366025403784438 0
      vertex 13.608761429008721 -6.293353340291235 0
    endloop
  endfacet
  facet normal 0 0 -1
    outer loop
      vertex 17.931851652578136 -8.517638090205041 0
      vertex 13.608761429008721 -6.293353340291235 0
      vertex 13.707106781186548 -6.207106781186548 0
    endloop
  endfacet
  facet normal 0 0 -1
    outer loop
      vertex 17.982889722747622 -8.261052384440102 0
      vertex 13.707106781186548 -6.207106781186548 0
      vertex 13.793353340291235 -6.10876142900872 0
    endloop
  endfacet
  facet normal 0 0 -1
    outer loop
      vertex 17.982889722747622 -8.261052384440102 0
      vertex 13.793353340291235 -6.10876142900872 0
      vertex 13.86602540378444 -6 0
    endloop
  endfacet
  facet normal 0 0 -1
    outer loop
      vertex 18 -8 0
      vertex 13.86602540378444 -6 0
      vertex 13.923879532511286 -5.88268343236509 0
    endloop
  endfacet
  facet normal 0 0 -1
    outer loop
      vertex 18 -8 0
      vertex 13.923879532511286 -5.88268343236509 0
      vertex 13.965925826289068 -5.758819045102521 0
    endloop
  endfacet
  facet normal 0 0 -1
    outer loop
      vertex 18 -8 0
      vertex 13.965925826289068 -5.758819045102521 0
      vertex 13.991444861373811 -5.630526192220051 0
    endloop
  endfacet
  facet normal 0 0 -1
    outer loop
      vertex 18 -8 0
      vertex 13.991444861373811 -5.630526192220051 0
      vertex 14 -5.5 0
    endloop
  endfacet
  facet normal 0 0 -1
    outer loop
      vertex 17.982889722747622 -8.261052384440102 0
      vertex 13.86602540378444 -6 0
      vertex 18 -8 0
    endloop
  endfacet
  facet normal 0.06540312923014606 -0.9978589232386034 -1.9133804881697227e-19
    outer loop
      vertex 16 -10 0
      vertex 16.261052384440102 -9.98288972274762 0
      vertex 16.261052384440102 -9.98288972274762 6
    endloop
  endfacet
  facet normal 0.1950903220161236 -0.9807852804032313 0
    outer loop
      vertex 16.261052384440102 -9.98288972274762 0
      vertex 16.51763809020504 -9.931851652578137 0
      vertex 16.261052384440102 -9.98288972274762 6
    endloop
  endfacet
  facet normal 0.3214394653031609 -0.9469301294951059 0
    outer loop
      vertex 16.51763809020504 -9.931851652578137 0
      vertex 16.76536686473018 -9.847759065022574 0
      vertex 16.51763809020504 -9.931851652578137 6
    endloop
  endfacet
  facet normal 0.44228869021900374 -0.8968727415326871 5.830408243228584e-19
    outer loop
      vertex 16.76536686473018 -9.847759065022574 0
      vertex 17 -9.732050807568877 0
      vertex 17 -9.732050807568877 6
    endloop
  endfacet
  facet normal 0.5555702330195995 -0.831469612302547 0
    outer loop
      vertex 17 -9.732050807568877 0
      vertex 17.217522858017443 -9.58670668058247 0
      vertex 17 -9.732050807568877 6
    endloop
  endfacet
  facet normal 0.6593458151000674 -0.7518398074789787 -4.699606691171011e-19
    outer loop
      vertex 17.217522858017443 -9.58670668058247 0
      vertex 17.414213562373096 -9.414213562373096 0
      vertex 17.414213562373096 -9.414213562373096 6
    endloop
  endfacet
  facet normal 0.7518398074789817 -0.6593458151000641 2.29546195528853e-19
    outer loop
      vertex 17.414213562373096 -9.414213562373096 0
      vertex 17.58670668058247 -9.21752285801744 0
      vertex 17.58670668058247 -9.21752285801744 6
    endloop
  endfacet
  facet normal 0.8314696123025418 -0.5555702330196074 0
    outer loop
      vertex 17.58670668058247 -9.21752285801744 0
      vertex 17.73205080756888 -9 0
      vertex 17.58670668058247 -9.21752285801744 6
    endloop
  endfacet
  facet normal 0.8968727415326926 -0.44228869021899286 0
    outer loop
      vertex 17.73205080756888 -9 0
      vertex 17.847759065022572 -8.76536686473018 0
      vertex 17.73205080756888 -9 6
    endloop
  endfacet
  facet normal 0.9469301294951054 -0.321439465303163 9.037291769064866e-19
    outer loop
      vertex 17.847759065022572 -8.76536686473018 0
      vertex 17.931851652578136 -8.517638090205041 0
      vertex 17.931851652578136 -8.517638090205041 6
    endloop
  endfacet
  facet normal 0.9807852804032291 -0.1950903220161354 -4.1025886007118013e-19
    outer loop
      vertex 17.931851652578136 -8.517638090205041 0
      vertex 17.982889722747622 -8.261052384440102 0
      vertex 17.982889722747622 -8.261052384440102 6
    endloop
  endfacet
  facet normal 0.9978589232386038 -0.0654031292301393 0
    outer loop
      vertex 17.982889722747622 -8.261052384440102 0
      vertex 18 -8 0
      vertex 17.982889722747622 -8.261052384440102 6
    endloop
  endfacet
  facet normal 0 0 -1
    outer loop
      vertex 18 -8 0
      vertex 14 -5.5 0
      vertex 14 5.5 0
    endloop
  endfacet
  facet normal 0 -1 0
    outer loop
      vertex -16 -10 6
      vertex 16 -10 0
      vertex 16 -10 6
    endloop
  endfacet
  facet normal 0 0 1
    outer loop
      vertex 16 -10 6
      vertex 16 -8 6
      vertex -16 -8 6
    endloop
  endfacet
  facet normal 0.06540312923014606 -0.9978589232386034 0
    outer loop
      vertex 16 -10 0
      vertex 16.261052384440102 -9.98288972274762 6
      vertex 16 -10 6
    endloop
  endfacet
  facet normal 0.1950903220161236 -0.9807852804032313 0
    outer loop
      vertex 16.51763809020504 -9.931851652578137 0
      vertex 16.51763809020504 -9.931851652578137 6
      vertex 16.261052384440102 -9.98288972274762 6
    endloop
  endfacet
  facet normal 0.3214394653031609 -0.9469301294951059 0
    outer loop
      vertex 16.76536686473018 -9.847759065022574 0
      vertex 16.76536686473018 -9.847759065022574 6
      vertex 16.51763809020504 -9.931851652578137 6
    endloop
  endfacet
  facet normal 0.44228869021900374 -0.8968727415326871 0
    outer loop
      vertex 16.76536686473018 -9.847759065022574 0
      vertex 17 -9.732050807568877 6
      vertex 16.76536686473018 -9.847759065022574 6
    endloop
  endfacet
  facet normal 0.5555702330195995 -0.831469612302547 0
    outer loop
      vertex 17.217522858017443 -9.58670668058247 0
      vertex 17.217522858017443 -9.58670668058247 6
      vertex 17 -9.732050807568877 6
    endloop
  endfacet
  facet normal 0.6593458151000674 -0.7518398074789787 0
    outer loop
      vertex 17.217522858017443 -9.58670668058247 0
      vertex 17.414213562373096 -9.414213562373096 6
      vertex 17.217522858017443 -9.58670668058247 6
    endloop
  endfacet
  facet normal 0.7518398074789817 -0.6593458151000641 0
    outer loop
      vertex 17.414213562373096 -9.414213562373096 0
      vertex 17.58670668058247 -9.21752285801744 6
      vertex 17.414213562373096 -9.414213562373096 6
    endloop
  endfacet
  facet normal 0.8314696123025418 -0.5555702330196074 0
    outer loop
      vertex 17.73205080756888 -9 0
      vertex 17.73205080756888 -9 6
      vertex 17.58670668058247 -9.21752285801744 6
    endloop
  endfacet
  facet normal 0.8968727415326926 -0.44228869021899286 0
    outer loop
      vertex 17.847759065022572 -8.76536686473018 0
      vertex 17.847759065022572 -8.76536686473018 6
      vertex 17.73205080756888 -9 6
    endloop
  endfacet
  facet normal 0.9469301294951054 -0.321439465303163 0
    outer loop
      vertex 17.847759065022572 -8.76536686473018 0
      vertex 17.931851652578136 -8.517638090205041 6
      vertex 17.847759065022572 -8.76536686473018 6
    endloop
  endfacet
  facet normal 0.9807852804032291 -0.1950903220161354 0
    outer loop
      vertex 17.931851652578136 -8.517638090205041 0
      vertex 17.982889722747622 -8.261052384440102 6
      vertex 17.931851652578136 -8.517638090205041 6
    endloop
  endfacet
  facet normal 0.9978589232386038 -0.0654031292301393 0
    outer loop
      vertex 18 -8 0
      vertex 18 -8 6
      vertex 17.982889722747622 -8.261052384440102 6
    endloop
  endfacet
  facet normal 1 0 0
    outer loop
      vertex 18 -8 0
      vertex 18 8 6
      vertex 18 -8 6
    endloop
  endfacet
  facet normal 0 0 1
    outer loop
      vertex 16 -10 6
      vertex 16.261052384440102 -9.98288972274762 6
      vertex 16.261052384440102 9.98288972274762 6
    endloop
  endfacet
  facet normal 0 0 1
    outer loop
      vertex 16.261052384440102 -9.98288972274762 6
      vertex 16.51763809020504 -9.931851652578137 6
      vertex 16.261052384440102 9.98288972274762 6
    endloop
  endfacet
  facet normal 0 0 1
    outer loop
      vertex 16.51763809020504 -9.931851652578137 6
      vertex 16.76536686473018 -9.847759065022574 6
      vertex 16.261052384440102 9.98288972274762 6
    endloop
  endfacet
  facet normal 0 0 1
    outer loop
      vertex 16.76536686473018 -9.847759065022574 6
      vertex 17 -9.732050807568877 6
      vertex 16.261052384440102 9.98288972274762 6
    endloop
  endfacet
  facet normal 0 0 1
    outer loop
      vertex 16 -10 6
      vertex 16.261052384440102 9.98288972274762 6
      vertex 16 -8 6
    endloop
  endfacet
  facet normal 0 0 1
    outer loop
      vertex 17 -9.732050807568877 6
      vertex 17.217522858017443 -9.58670668058247 6
      vertex 16.261052384440102 9.98288972274762 6
    endloop
  endfacet
  facet normal 0 0 1
    outer loop
      vertex 17.217522858017443 -9.58670668058247 6
      vertex 17.414213562373096 -9.414213562373096 6
      vertex 16.261052384440102 9.98288972274762 6
    endloop
  endfacet
  facet normal 0 0 1
    outer loop
      vertex 17.414213562373096 -9.414213562373096 6
      vertex 17.58670668058247 -9.21752285801744 6
      vertex 16.261052384440102 9.98288972274762 6
    endloop
  endfacet
  facet normal 0 0 1
    outer loop
      vertex 17.58670668058247 -9.21752285801744 6
      vertex 17.73205080756888 -9 6
      vertex 16.261052384440102 9.98288972274762 6
    endloop
  endfacet
  facet normal 0 0 1
    outer loop
      vertex 17.73205080756888 -9 6
      vertex 17.847759065022572 -8.76536686473018 6
      vertex 16.261052384440102 9.98288972274762 6
    endloop
  endfacet
  facet normal 0 0 1
    outer loop
      vertex 17.847759065022572 -8.76536686473018 6
      vertex 17.931851652578136 -8.517638090205041 6
      vertex 16.261052384440102 9.98288972274762 6
    endloop
  endfacet
  facet normal 0 0 1
    outer loop
      vertex 17.931851652578136 -8.517638090205041 6
      vertex 17.982889722747622 -8.261052384440102 6
      vertex 16.261052384440102 9.98288972274762 6
    endloop
  endfacet
  facet normal 0 0 1
    outer loop
      vertex 17.982889722747622 -8.261052384440102 6
      vertex 18 -8 6
      vertex 16.261052384440102 9.98288972274762 6
    endloop
  endfacet
  facet normal 0 0 -1
    outer loop
      vertex 18 8 0
      vertex 13 6.5 0
      vertex -13 6.5 0
    endloop
  endfacet
  facet normal 0 0 -1
    outer loop
      vertex -16.261052384440102 9.98288972274762 0
      vertex 17.982889722747622 8.261052384440102 0
      vertex 18 8 0
    endloop
  endfacet
  facet normal 0 0 -1
    outer loop
      vertex -16.261052384440102 9.98288972274762 0
      vertex 16 10 0
      vertex 16.261052384440102 9.98288972274762 0
    endloop
  endfacet
  facet normal 0 0 -1
    outer loop
      vertex -16.261052384440102 9.98288972274762 0
      vertex 16.261052384440102 9.98288972274762 0
      vertex 16.51763809020504 9.931851652578137 0
    endloop
  endfacet
  facet normal 0 0 -1
    outer loop
      vertex -16.261052384440102 9.98288972274762 0
      vertex 17.931851652578136 8.517638090205041 0
      vertex 17.982889722747622 8.261052384440102 0
    endloop
  endfacet
  facet normal 0 0 -1
    outer loop
      vertex -16.261052384440102 9.98288972274762 0
      vertex 17.73205080756888 9 0
      vertex 17.847759065022572 8.76536686473018 0
    endloop
  endfacet
  facet normal 0 0 -1
    outer loop
      vertex -16.261052384440102 9.98288972274762 0
      vertex 17.847759065022572 8.76536686473018 0
      vertex 17.931851652578136 8.517638090205041 0
    endloop
  endfacet
  facet normal 0 0 -1
    outer loop
      vertex -16.261052384440102 9.98288972274762 0
      vertex 17.217522858017443 9.58670668058247 0
      vertex 17.414213562373096 9.414213562373096 0
    endloop
  endfacet
  facet normal 0 0 -1
    outer loop
      vertex -16.261052384440102 9.98288972274762 0
      vertex 16.51763809020504 9.931851652578137 0
      vertex 16.76536686473018 9.847759065022574 0
    endloop
  endfacet
  facet normal 0 0 -1
    outer loop
      vertex -16.261052384440102 9.98288972274762 0
      vertex 16.76536686473018 9.847759065022574 0
      vertex 17 9.732050807568877 0
    endloop
  endfacet
  facet normal 0 0 -1
    outer loop
      vertex -16.261052384440102 9.98288972274762 0
      vertex 17 9.732050807568877 0
      vertex 17.217522858017443 9.58670668058247 0
    endloop
  endfacet
  facet normal 0 0 -1
    outer loop
      vertex -16.261052384440102 9.98288972274762 0
      vertex 17.58670668058247 9.21752285801744 0
      vertex 17.73205080756888 9 0
    endloop
  endfacet
  facet normal 0 0 -1
    outer loop
      vertex -16.261052384440102 9.98288972274762 0
      vertex 17.414213562373096 9.414213562373096 0
      vertex 17.58670668058247 9.21752285801744 0
    endloop
  endfacet
  facet normal 0 1 0
    outer loop
      vertex -16 10 0
      vertex 16 10 6
      vertex 16 10 0
    endloop
  endfacet
  facet normal 0 0 -1
    outer loop
      vertex 18 -8 0
      vertex 14 5.5 0
      vertex 18 8 0
    endloop
  endfacet
  facet normal 1 0 0
    outer loop
      vertex 18 -8 0
      vertex 18 8 0
      vertex 18 8 6
    endloop
  endfacet
  facet normal 0 0 -1
    outer loop
      vertex 18 8 0
      vertex 13.793353340291235 6.10876142900872 0
      vertex 13.707106781186548 6.207106781186548 0
    endloop
  endfacet
  facet normal 0 0 -1
    outer loop
      vertex 18 8 0
      vertex 13.707106781186548 6.207106781186548 0
      vertex 13.608761429008721 6.293353340291235 0
    endloop
  endfacet
  facet normal 0 0 -1
    outer loop
      vertex 18 8 0
      vertex 14 5.5 0
      vertex 13.991444861373811 5.630526192220051 0
    endloop
  endfacet
  facet normal 0 0 -1
    outer loop
      vertex 18 8 0
      vertex 13.991444861373811 5.630526192220051 0
      vertex 13.965925826289068 5.758819045102521 0
    endloop
  endfacet
  facet normal 0 0 -1
    outer loop
      vertex 18 8 0
      vertex 13.965925826289068 5.758819045102521 0
      vertex 13.923879532511286 5.88268343236509 0
    endloop
  endfacet
  facet normal 0 0 -1
    outer loop
      vertex 18 8 0
      vertex 13.923879532511286 5.88268343236509 0
      vertex 13.86602540378444 6 0
    endloop
  endfacet
  facet normal 0 0 -1
    outer loop
      vertex 18 8 0
      vertex 13.86602540378444 6 0
      vertex 13.793353340291235 6.10876142900872 0
    endloop
  endfacet
  facet normal 0 0 -1
    outer loop
      vertex 18 8 0
      vertex 13.130526192220051 6.49144486137381 0
      vertex 13 6.5 0
    endloop
  endfacet
  facet normal 0 0 -1
    outer loop
      vertex 18 8 0
      vertex 13.25881904510252 6.465925826289069 0
      vertex 13.130526192220051 6.49144486137381 0
    endloop
  endfacet
  facet normal 0 0 -1
    outer loop
      vertex 18 8 0
      vertex 13.38268343236509 6.423879532511287 0
      vertex 13.25881904510252 6.465925826289069 0
    endloop
  endfacet
  facet normal 0 0 -1
    outer loop
      vertex 18 8 0
      vertex 13.5 6.366025403784438 0
      vertex 13.38268343236509 6.423879532511287 0
    endloop
  endfacet
  facet normal 0 0 -1
    outer loop
      vertex 18 8 0
      vertex 13.608761429008721 6.293353340291235 0
      vertex 13.5 6.366025403784438 0
    endloop
  endfacet
  facet normal 0.9978589232386038 0.0654031292301393 0
    outer loop
      vertex 18 8 0
      vertex 17.982889722747622 8.261052384440102 0
      vertex 18 8 6
    endloop
  endfacet
  facet normal 0.9807852804032291 0.1950903220161354 4.1025886007118013e-19
    outer loop
      vertex 17.982889722747622 8.261052384440102 0
      vertex 17.931851652578136 8.517638090205041 0
      vertex 17.931851652578136 8.517638090205041 6
    endloop
  endfacet
  facet normal 0.9469301294951054 0.321439465303163 -9.037291769064866e-19
    outer loop
      vertex 17.931851652578136 8.517638090205041 0
      vertex 17.847759065022572 8.76536686473018 0
      vertex 17.847759065022572 8.76536686473018 6
    endloop
  endfacet
  facet normal 0.06540312923014606 0.9978589232386034 1.9133804881697227e-19
    outer loop
      vertex 16 10 0
      vertex 16.261052384440102 9.98288972274762 6
      vertex 16.261052384440102 9.98288972274762 0
    endloop
  endfacet
  facet normal 0.1950903220161236 0.9807852804032313 0
    outer loop
      vertex 16.261052384440102 9.98288972274762 0
      vertex 16.261052384440102 9.98288972274762 6
      vertex 16.51763809020504 9.931851652578137 0
    endloop
  endfacet
  facet normal 0.44228869021900374 0.8968727415326871 0
    outer loop
      vertex 16.76536686473018 9.847759065022574 0
      vertex 16.76536686473018 9.847759065022574 6
      vertex 17 9.732050807568877 0
    endloop
  endfacet
  facet normal 0.3214394653031609 0.9469301294951059 -1.026190260093319e-18
    outer loop
      vertex 16.51763809020504 9.931851652578137 0
      vertex 16.76536686473018 9.847759065022574 6
      vertex 16.76536686473018 9.847759065022574 0
    endloop
  endfacet
  facet normal 0.8968727415326926 0.44228869021899286 0
    outer loop
      vertex 17.847759065022572 8.76536686473018 0
      vertex 17.73205080756888 9 0
      vertex 17.847759065022572 8.76536686473018 6
    endloop
  endfacet
  facet normal 0.8314696123025418 0.5555702330196074 0
    outer loop
      vertex 17.73205080756888 9 0
      vertex 17.58670668058247 9.21752285801744 0
      vertex 17.73205080756888 9 6
    endloop
  endfacet
  facet normal 0.7518398074789817 0.6593458151000641 -2.29546195528853e-19
    outer loop
      vertex 17.58670668058247 9.21752285801744 0
      vertex 17.414213562373096 9.414213562373096 0
      vertex 17.414213562373096 9.414213562373096 6
    endloop
  endfacet
  facet normal 0.5555702330195995 0.831469612302547 0
    outer loop
      vertex 17.217522858017443 9.58670668058247 0
      vertex 17 9.732050807568877 0
      vertex 17.217522858017443 9.58670668058247 6
    endloop
  endfacet
  facet normal 0.6593458151000674 0.7518398074789787 4.699606691171011e-19
    outer loop
      vertex 17.414213562373096 9.414213562373096 0
      vertex 17.217522858017443 9.58670668058247 0
      vertex 17.217522858017443 9.58670668058247 6
    endloop
  endfacet
  facet normal 0 0 1
    outer loop
      vertex 16.261052384440102 9.98288972274762 6
      vertex -16 8 6
      vertex 16 8 6
    endloop
  endfacet
  facet normal 0 0 1
    outer loop
      vertex -16 10 6
      vertex 16.261052384440102 9.98288972274762 6
      vertex 16 10 6
    endloop
  endfacet
  facet normal 0 0 1
    outer loop
      vertex 16.261052384440102 9.98288972274762 6
      vertex 16 8 6
      vertex 16 -8 6
    endloop
  endfacet
  facet normal 0 0 1
    outer loop
      vertex 18 -8 6
      vertex 18 8 6
      vertex 16.261052384440102 9.98288972274762 6
    endloop
  endfacet
  facet normal 0.9978589232386038 0.0654031292301393 0
    outer loop
      vertex 17.982889722747622 8.261052384440102 0
      vertex 17.982889722747622 8.261052384440102 6
      vertex 18 8 6
    endloop
  endfacet
  facet normal 0.9807852804032291 0.1950903220161354 0
    outer loop
      vertex 17.982889722747622 8.261052384440102 0
      vertex 17.931851652578136 8.517638090205041 6
      vertex 17.982889722747622 8.261052384440102 6
    endloop
  endfacet
  facet normal 0.9469301294951054 0.321439465303163 0
    outer loop
      vertex 17.931851652578136 8.517638090205041 0
      vertex 17.847759065022572 8.76536686473018 6
      vertex 17.931851652578136 8.517638090205041 6
    endloop
  endfacet
  facet normal 0.06540312923014606 0.9978589232386034 0
    outer loop
      vertex 16 10 0
      vertex 16 10 6
      vertex 16.261052384440102 9.98288972274762 6
    endloop
  endfacet
  facet normal 0.1950903220161236 0.9807852804032313 0
    outer loop
      vertex 16.51763809020504 9.931851652578137 0
      vertex 16.261052384440102 9.98288972274762 6
      vertex 16.51763809020504 9.931851652578137 6
    endloop
  endfacet
  facet normal 0.3214394653031609 0.9469301294951059 0
    outer loop
      vertex 16.51763809020504 9.931851652578137 0
      vertex 16.51763809020504 9.931851652578137 6
      vertex 16.76536686473018 9.847759065022574 6
    endloop
  endfacet
  facet normal 0.8968727415326926 0.44228869021899286 0
    outer loop
      vertex 17.73205080756888 9 0
      vertex 17.73205080756888 9 6
      vertex 17.847759065022572 8.76536686473018 6
    endloop
  endfacet
  facet normal 0.8314696123025418 0.5555702330196074 0
    outer loop
      vertex 17.58670668058247 9.21752285801744 0
      vertex 17.58670668058247 9.21752285801744 6
      vertex 17.73205080756888 9 6
    endloop
  endfacet
  facet normal 0.7518398074789817 0.6593458151000641 0
    outer loop
      vertex 17.58670668058247 9.21752285801744 0
      vertex 17.414213562373096 9.414213562373096 6
      vertex 17.58670668058247 9.21752285801744 6
    endloop
  endfacet
  facet normal 0.5555702330195995 0.831469612302547 0
    outer loop
      vertex 17 9.732050807568877 0
      vertex 17 9.732050807568877 6
      vertex 17.217522858017443 9.58670668058247 6
    endloop
  endfacet
  facet normal 0.6593458151000674 0.7518398074789787 0
    outer loop
      vertex 17.414213562373096 9.414213562373096 0
      vertex 17.217522858017443 9.58670668058247 6
      vertex 17.414213562373096 9.414213562373096 6
    endloop
  endfacet
  facet normal 0.44228869021900374 0.8968727415326871 0
    outer loop
      vertex 17 9.732050807568877 0
      vertex 16.76536686473018 9.847759065022574 6
      vertex 17 9.732050807568877 6
    endloop
  endfacet
  facet normal 0 0 1
    outer loop
      vertex 18 8 6
      vertex 17.982889722747622 8.261052384440102 6
      vertex 16.261052384440102 9.98288972274762 6
    endloop
  endfacet
  facet normal 0 0 1
    outer loop
      vertex 16.261052384440102 9.98288972274762 6
      vertex 16.76536686473018 9.847759065022574 6
      vertex 16.51763809020504 9.931851652578137 6
    endloop
  endfacet
  facet normal 0 0 1
    outer loop
      vertex 16.261052384440102 9.98288972274762 6
      vertex 17.217522858017443 9.58670668058247 6
      vertex 17 9.732050807568877 6
    endloop
  endfacet
  facet normal 0 0 1
    outer loop
      vertex 16.261052384440102 9.98288972274762 6
      vertex 17 9.732050807568877 6
      vertex 16.76536686473018 9.847759065022574 6
    endloop
  endfacet
  facet normal 0 0 1
    outer loop
      vertex 17.982889722747622 8.261052384440102 6
      vertex 17.931851652578136 8.517638090205041 6
      vertex 16.261052384440102 9.98288972274762 6
    endloop
  endfacet
  facet normal 0 0 1
    outer loop
      vertex 17.931851652578136 8.517638090205041 6
      vertex 17.847759065022572 8.76536686473018 6
      vertex 16.261052384440102 9.98288972274762 6
    endloop
  endfacet
  facet normal 0 0 1
    outer loop
      vertex 16.261052384440102 9.98288972274762 6
      vertex 17.847759065022572 8.76536686473018 6
      vertex 17.73205080756888 9 6
    endloop
  endfacet
  facet normal 0 0 1
    outer loop
      vertex 16.261052384440102 9.98288972274762 6
      vertex 17.414213562373096 9.414213562373096 6
      vertex 17.217522858017443 9.58670668058247 6
    endloop
  endfacet
  facet normal 0 0 1
    outer loop
      vertex 16.261052384440102 9.98288972274762 6
      vertex 17.58670668058247 9.21752285801744 6
      vertex 17.414213562373096 9.414213562373096 6
    endloop
  endfacet
  facet normal 0 0 1
    outer loop
      vertex 16.261052384440102 9.98288972274762 6
      vertex 17.73205080756888 9 6
      vertex 17.58670668058247 9.21752285801744 6
    endloop
  endfacet
  facet normal 0 0 1
    outer loop
      vertex -16 -8 1.9999999999999996
      vertex -13.923879532511286 -5.88268343236509 1.9999999999999996
      vertex -13.965925826289068 -5.758819045102521 1.9999999999999996
    endloop
  endfacet
  facet normal 0 0 1
    outer loop
      vertex -16 -8 1.9999999999999996
      vertex -13.965925826289068 -5.758819045102521 1.9999999999999996
      vertex -13.991444861373811 -5.630526192220051 1.9999999999999996
    endloop
  endfacet
  facet normal 0 0 1
    outer loop
      vertex -16 -8 1.9999999999999996
      vertex -13.5 -6.366025403784438 1.9999999999999996
      vertex -13.608761429008721 -6.293353340291235 1.9999999999999996
    endloop
  endfacet
  facet normal 0 0 1
    outer loop
      vertex -16 -8 1.9999999999999996
      vertex -13.25881904510252 -6.465925826289069 1.9999999999999996
      vertex -13.38268343236509 -6.423879532511287 1.9999999999999996
    endloop
  endfacet
  facet normal 0 0 1
    outer loop
      vertex -16 -8 1.9999999999999996
      vertex -13.38268343236509 -6.423879532511287 1.9999999999999996
      vertex -13.5 -6.366025403784438 1.9999999999999996
    endloop
  endfacet
  facet normal 0 0 1
    outer loop
      vertex -16 -8 1.9999999999999996
      vertex -13.130526192220051 -6.49144486137381 1.9999999999999996
      vertex -13.25881904510252 -6.465925826289069 1.9999999999999996
    endloop
  endfacet
  facet normal 0 0 1
    outer loop
      vertex -16 -8 1.9999999999999996
      vertex -13 -6.5 1.9999999999999996
      vertex -13.130526192220051 -6.49144486137381 1.9999999999999996
    endloop
  endfacet
  facet normal 0 0 1
    outer loop
      vertex -16 -8 1.9999999999999996
      vertex -13.707106781186548 -6.207106781186548 1.9999999999999996
      vertex -13.793353340291235 -6.10876142900872 1.9999999999999996
    endloop
  endfacet
  facet normal 0 0 1
    outer loop
      vertex -16 -8 1.9999999999999996
      vertex -13.608761429008721 -6.293353340291235 1.9999999999999996
      vertex -13.707106781186548 -6.207106781186548 1.9999999999999996
    endloop
  endfacet
  facet normal 0 0 1
    outer loop
      vertex -16 -8 1.9999999999999996
      vertex -13.793353340291235 -6.10876142900872 1.9999999999999996
      vertex -13.86602540378444 -6 1.9999999999999996
    endloop
  endfacet
  facet normal 0 0 1
    outer loop
      vertex -16 -8 1.9999999999999996
      vertex -13.86602540378444 -6 1.9999999999999996
      vertex -13.923879532511286 -5.88268343236509 1.9999999999999996
    endloop
  endfacet
  facet normal 0 0 1
    outer loop
      vertex -16 -8 1.9999999999999996
      vertex -13.991444861373811 -5.630526192220051 1.9999999999999996
      vertex -16 8 1.9999999999999996
    endloop
  endfacet
  facet normal 0 0 1
    outer loop
      vertex -13.991444861373811 -5.630526192220051 1.9999999999999996
      vertex -14 -5.5 1.9999999999999996
      vertex -16 8 1.9999999999999996
    endloop
  endfacet
  facet normal 0 1 0
    outer loop
      vertex -16 -8 1.9999999999999996
      vertex -2.5 -8 2.75
      vertex 16 -8 1.9999999999999996
    endloop
  endfacet
  facet normal 0 0 1
    outer loop
      vertex -16 -8 1.9999999999999996
      vertex 16 -8 1.9999999999999996
      vertex -13 -6.5 1.9999999999999996
    endloop
  endfacet
  facet normal 0 1 0
    outer loop
      vertex -16 -8 1.9999999999999996
      vertex -16 -8 6
      vertex -2.5 -8 2.75
    endloop
  endfacet
  facet normal 1 0 0
    outer loop
      vertex -16 -8 1.9999999999999996
      vertex -16 8 6
      vertex -16 -8 6
    endloop
  endfacet
  facet normal 0 1 0
    outer loop
      vertex -2.5 -8 2.75
      vertex -16 -8 6
      vertex -2.5 -8 5.25
    endloop
  endfacet
  facet normal 0 1 0
    outer loop
      vertex -2.5 -8 5.25
      vertex -16 -8 6
      vertex 2.5 -8 5.25
    endloop
  endfacet
  facet normal 0 0 1
    outer loop
      vertex -14 -5.5 1.9999999999999996
      vertex -14 5.5 1.9999999999999996
      vertex -16 8 1.9999999999999996
    endloop
  endfacet
  facet normal 0 0 1
    outer loop
      vertex -14 5.5 1.9999999999999996
      vertex -13.991444861373811 5.630526192220051 1.9999999999999996
      vertex -16 8 1.9999999999999996
    endloop
  endfacet
  facet normal 0 0 1
    outer loop
      vertex -13.991444861373811 5.630526192220051 1.9999999999999996
      vertex -13.965925826289068 5.758819045102521 1.9999999999999996
      vertex -16 8 1.9999999999999996
    endloop
  endfacet
  facet normal 0 0 1
    outer loop
      vertex -13.965925826289068 5.758819045102521 1.9999999999999996
      vertex -13.923879532511286 5.88268343236509 1.9999999999999996
      vertex -16 8 1.9999999999999996
    endloop
  endfacet
  facet normal 0 0 1
    outer loop
      vertex -13.923879532511286 5.88268343236509 1.9999999999999996
      vertex -13.86602540378444 6 1.9999999999999996
      vertex -16 8 1.9999999999999996
    endloop
  endfacet
  facet normal 0 0 1
    outer loop
      vertex -13.86602540378444 6 1.9999999999999996
      vertex -13.793353340291235 6.10876142900872 1.9999999999999996
      vertex -16 8 1.9999999999999996
    endloop
  endfacet
  facet normal 0 0 1
    outer loop
      vertex -13.793353340291235 6.10876142900872 1.9999999999999996
      vertex -13.707106781186548 6.207106781186548 1.9999999999999996
      vertex -16 8 1.9999999999999996
    endloop
  endfacet
  facet normal 0 0 1
    outer loop
      vertex -13.707106781186548 6.207106781186548 1.9999999999999996
      vertex -13.608761429008721 6.293353340291235 1.9999999999999996
      vertex -16 8 1.9999999999999996
    endloop
  endfacet
  facet normal 0 0 1
    outer loop
      vertex -13.608761429008721 6.293353340291235 1.9999999999999996
      vertex -13.5 6.366025403784438 1.9999999999999996
      vertex -16 8 1.9999999999999996
    endloop
  endfacet
  facet normal 0 0 1
    outer loop
      vertex -13.5 6.366025403784438 1.9999999999999996
      vertex -13.38268343236509 6.423879532511287 1.9999999999999996
      vertex -16 8 1.9999999999999996
    endloop
  endfacet
  facet normal 0 0 1
    outer loop
      vertex -13.38268343236509 6.423879532511287 1.9999999999999996
      vertex -13.25881904510252 6.465925826289069 1.9999999999999996
      vertex -16 8 1.9999999999999996
    endloop
  endfacet
  facet normal 0 0 1
    outer loop
      vertex -13.25881904510252 6.465925826289069 1.9999999999999996
      vertex -13.130526192220051 6.49144486137381 1.9999999999999996
      vertex -16 8 1.9999999999999996
    endloop
  endfacet
  facet normal 0 0 1
    outer loop
      vertex -13.130526192220051 6.49144486137381 1.9999999999999996
      vertex -13 6.5 1.9999999999999996
      vertex -16 8 1.9999999999999996
    endloop
  endfacet
  facet normal 0 0 1
    outer loop
      vertex -13 6.5 1.9999999999999996
      vertex 13 6.5 1.9999999999999996
      vertex -16 8 1.9999999999999996
    endloop
  endfacet
  facet normal 0 -1 0
    outer loop
      vertex -16 8 1.9999999999999996
      vertex 2.5 8 2.75
      vertex -2.5 8 2.75
    endloop
  endfacet
  facet normal 1 0 0
    outer loop
      vertex -16 -8 1.9999999999999996
      vertex -16 8 1.9999999999999996
      vertex -16 8 6
    endloop
  endfacet
  facet normal 0 -1 0
    outer loop
      vertex -16 8 1.9999999999999996
      vertex -2.5 8 5.25
      vertex -16 8 6
    endloop
  endfacet
  facet normal 0 -1 0
    outer loop
      vertex -16 8 1.9999999999999996
      vertex -2.5 8 2.75
      vertex -2.5 8 5.25
    endloop
  endfacet
  facet normal 0 -1 0
    outer loop
      vertex -2.5 8 5.25
      vertex 16 8 6
      vertex -16 8 6
    endloop
  endfacet
  facet normal 0 1 0
    outer loop
      vertex -2.5 -8 2.75
      vertex 2.5 -8 2.75
      vertex 16 -8 1.9999999999999996
    endloop
  endfacet
  facet normal 0 0 1
    outer loop
      vertex -13 -6.5 1.9999999999999996
      vertex 16 -8 1.9999999999999996
      vertex 13 -6.5 1.9999999999999996
    endloop
  endfacet
  facet normal 0 0 1
    outer loop
      vertex 16 -8 1.9999999999999996
      vertex 13.130526192220051 -6.49144486137381 1.9999999999999996
      vertex 13 -6.5 1.9999999999999996
    endloop
  endfacet
  facet normal 0 0 1
    outer loop
      vertex 16 -8 1.9999999999999996
      vertex 13.25881904510252 -6.465925826289069 1.9999999999999996
      vertex 13.130526192220051 -6.49144486137381 1.9999999999999996
    endloop
  endfacet
  facet normal 0 0 1
    outer loop
      vertex 16 -8 1.9999999999999996
      vertex 13.38268343236509 -6.423879532511287 1.9999999999999996
      vertex 13.25881904510252 -6.465925826289069 1.9999999999999996
    endloop
  endfacet
  facet normal 0 0 1
    outer loop
      vertex 16 -8 1.9999999999999996
      vertex 13.5 -6.366025403784438 1.9999999999999996
      vertex 13.38268343236509 -6.423879532511287 1.9999999999999996
    endloop
  endfacet
  facet normal 0 0 1
    outer loop
      vertex 16 -8 1.9999999999999996
      vertex 13.608761429008721 -6.293353340291235 1.9999999999999996
      vertex 13.5 -6.366025403784438 1.9999999999999996
    endloop
  endfacet
  facet normal 0 0 1
    outer loop
      vertex 16 -8 1.9999999999999996
      vertex 13.707106781186548 -6.207106781186548 1.9999999999999996
      vertex 13.608761429008721 -6.293353340291235 1.9999999999999996
    endloop
  endfacet
  facet normal 0 0 1
    outer loop
      vertex 16 -8 1.9999999999999996
      vertex 13.793353340291235 -6.10876142900872 1.9999999999999996
      vertex 13.707106781186548 -6.207106781186548 1.9999999999999996
    endloop
  endfacet
  facet normal 0 0 1
    outer loop
      vertex 16 -8 1.9999999999999996
      vertex 13.86602540378444 -6 1.9999999999999996
      vertex 13.793353340291235 -6.10876142900872 1.9999999999999996
    endloop
  endfacet
  facet normal 0 0 1
    outer loop
      vertex 16 -8 1.9999999999999996
      vertex 13.923879532511286 -5.88268343236509 1.9999999999999996
      vertex 13.86602540378444 -6 1.9999999999999996
    endloop
  endfacet
  facet normal 0 0 1
    outer loop
      vertex 16 -8 1.9999999999999996
      vertex 13.965925826289068 -5.758819045102521 1.9999999999999996
      vertex 13.923879532511286 -5.88268343236509 1.9999999999999996
    endloop
  endfacet
  facet normal 0 0 1
    outer loop
      vertex 16 -8 1.9999999999999996
      vertex 13.991444861373811 -5.630526192220051 1.9999999999999996
      vertex 13.965925826289068 -5.758819045102521 1.9999999999999996
    endloop
  endfacet
  facet normal 0 0 1
    outer loop
      vertex 16 -8 1.9999999999999996
      vertex 14 -5.5 1.9999999999999996
      vertex 13.991444861373811 -5.630526192220051 1.9999999999999996
    endloop
  endfacet
  facet normal 0 0 1
    outer loop
      vertex 16 -8 1.9999999999999996
      vertex 14 5.5 1.9999999999999996
      vertex 14 -5.5 1.9999999999999996
    endloop
  endfacet
  facet normal 0 1 0
    outer loop
      vertex 2.5 -8 2.75
      vertex 2.5 -8 5.25
      vertex 16 -8 1.9999999999999996
    endloop
  endfacet
  facet normal 0 1 0
    outer loop
      vertex 2.5 -8 5.25
      vertex -16 -8 6
      vertex 16 -8 6
    endloop
  endfacet
  facet normal 0 1 0
    outer loop
      vertex 16 -8 1.9999999999999996
      vertex 2.5 -8 5.25
      vertex 16 -8 6
    endloop
  endfacet
  facet normal -1 0 0
    outer loop
      vertex 16 -8 1.9999999999999996
      vertex 16 -8 6
      vertex 16 8 1.9999999999999996
    endloop
  endfacet
  facet normal 0 -1 0
    outer loop
      vertex -16 8 1.9999999999999996
      vertex 16 8 1.9999999999999996
      vertex 2.5 8 2.75
    endloop
  endfacet
  facet normal 0 0 1
    outer loop
      vertex -16 8 1.9999999999999996
      vertex 13 6.5 1.9999999999999996
      vertex 16 8 1.9999999999999996
    endloop
  endfacet
  facet normal 0 0 1
    outer loop
      vertex 16 -8 1.9999999999999996
      vertex 13.991444861373811 5.630526192220051 1.9999999999999996
      vertex 14 5.5 1.9999999999999996
    endloop
  endfacet
  facet normal 0 0 1
    outer loop
      vertex 16 -8 1.9999999999999996
      vertex 16 8 1.9999999999999996
      vertex 13.991444861373811 5.630526192220051 1.9999999999999996
    endloop
  endfacet
  facet normal 0 0 1
    outer loop
      vertex 13.923879532511286 5.88268343236509 1.9999999999999996
      vertex 16 8 1.9999999999999996
      vertex 13.86602540378444 6 1.9999999999999996
    endloop
  endfacet
  facet normal 0 0 1
    outer loop
      vertex 13.86602540378444 6 1.9999999999999996
      vertex 16 8 1.9999999999999996
      vertex 13.793353340291235 6.10876142900872 1.9999999999999996
    endloop
  endfacet
  facet normal 0 0 1
    outer loop
      vertex 13.707106781186548 6.207106781186548 1.9999999999999996
      vertex 16 8 1.9999999999999996
      vertex 13.608761429008721 6.293353340291235 1.9999999999999996
    endloop
  endfacet
  facet normal 0 0 1
    outer loop
      vertex 13.707106781186548 6.207106781186548 1.9999999999999996
      vertex 13.793353340291235 6.10876142900872 1.9999999999999996
      vertex 16 8 1.9999999999999996
    endloop
  endfacet
  facet normal 0 0 1
    outer loop
      vertex 13 6.5 1.9999999999999996
      vertex 13.130526192220051 6.49144486137381 1.9999999999999996
      vertex 16 8 1.9999999999999996
    endloop
  endfacet
  facet normal 0 0 1
    outer loop
      vertex 13.130526192220051 6.49144486137381 1.9999999999999996
      vertex 13.25881904510252 6.465925826289069 1.9999999999999996
      vertex 16 8 1.9999999999999996
    endloop
  endfacet
  facet normal 0 0 1
    outer loop
      vertex 13.38268343236509 6.423879532511287 1.9999999999999996
      vertex 13.5 6.366025403784438 1.9999999999999996
      vertex 16 8 1.9999999999999996
    endloop
  endfacet
  facet normal 0 0 1
    outer loop
      vertex 13.25881904510252 6.465925826289069 1.9999999999999996
      vertex 13.38268343236509 6.423879532511287 1.9999999999999996
      vertex 16 8 1.9999999999999996
    endloop
  endfacet
  facet normal 0 0 1
    outer loop
      vertex 13.608761429008721 6.293353340291235 1.9999999999999996
      vertex 16 8 1.9999999999999996
      vertex 13.5 6.366025403784438 1.9999999999999996
    endloop
  endfacet
  facet normal 0 0 1
    outer loop
      vertex 13.991444861373811 5.630526192220051 1.9999999999999996
      vertex 16 8 1.9999999999999996
      vertex 13.965925826289068 5.758819045102521 1.9999999999999996
    endloop
  endfacet
  facet normal 0 0 1
    outer loop
      vertex 13.965925826289068 5.758819045102521 1.9999999999999996
      vertex 16 8 1.9999999999999996
      vertex 13.923879532511286 5.88268343236509 1.9999999999999996
    endloop
  endfacet
  facet normal 0 -1 0
    outer loop
      vertex 2.5 8 2.75
      vertex 16 8 6
      vertex 2.5 8 5.25
    endloop
  endfacet
  facet normal 0 -1 0
    outer loop
      vertex -2.5 8 5.25
      vertex 2.5 8 5.25
      vertex 16 8 6
    endloop
  endfacet
  facet normal -1 0 0
    outer loop
      vertex 16 8 1.9999999999999996
      vertex 16 -8 6
      vertex 16 8 6
    endloop
  endfacet
  facet normal 0 -1 0
    outer loop
      vertex 2.5 8 2.75
      vertex 16 8 1.9999999999999996
      vertex 16 8 6
    endloop
  endfacet
  facet normal 0.5555702330195995 0.8314696123025469 0
    outer loop
      vertex -13.608761429008721 -6.293353340291235 1.9999999999999996
      vertex -13.5 -6.366025403784438 0
      vertex -13.608761429008721 -6.293353340291235 0
    endloop
  endfacet
  facet normal 0.8314696123025418 0.5555702330196074 0
    outer loop
      vertex -13.86602540378444 -6 1.9999999999999996
      vertex -13.793353340291235 -6.10876142900872 0
      vertex -13.86602540378444 -6 0
    endloop
  endfacet
  facet normal 0.6593458151000674 0.7518398074789786 0
    outer loop
      vertex -13.707106781186548 -6.207106781186548 1.9999999999999996
      vertex -13.608761429008721 -6.293353340291235 0
      vertex -13.707106781186548 -6.207106781186548 0
    endloop
  endfacet
  facet normal 0.7518398074789816 0.6593458151000641 0
    outer loop
      vertex -13.793353340291235 -6.10876142900872 1.9999999999999996
      vertex -13.707106781186548 -6.207106781186548 0
      vertex -13.793353340291235 -6.10876142900872 0
    endloop
  endfacet
  facet normal 0.9469301294951054 0.32143946530316303 0
    outer loop
      vertex -13.965925826289068 -5.758819045102521 1.9999999999999996
      vertex -13.923879532511286 -5.88268343236509 0
      vertex -13.965925826289068 -5.758819045102521 0
    endloop
  endfacet
  facet normal 0.8968727415326924 0.44228869021899275 0
    outer loop
      vertex -13.923879532511286 -5.88268343236509 1.9999999999999996
      vertex -13.86602540378444 -6 0
      vertex -13.923879532511286 -5.88268343236509 0
    endloop
  endfacet
  facet normal 0.9807852804032289 0.19509032201613535 0
    outer loop
      vertex -13.991444861373811 -5.630526192220051 1.9999999999999996
      vertex -13.965925826289068 -5.758819045102521 0
      vertex -13.991444861373811 -5.630526192220051 0
    endloop
  endfacet
  facet normal 0.9978589232386037 0.06540312923013929 0
    outer loop
      vertex -14 -5.5 1.9999999999999996
      vertex -13.991444861373811 -5.630526192220051 0
      vertex -14 -5.5 0
    endloop
  endfacet
  facet normal 0.6593458151000674 0.7518398074789786 0
    outer loop
      vertex -13.608761429008721 -6.293353340291235 1.9999999999999996
      vertex -13.608761429008721 -6.293353340291235 0
      vertex -13.707106781186548 -6.207106781186548 1.9999999999999996
    endloop
  endfacet
  facet normal 0.5555702330195995 0.8314696123025469 -3.1018587441062766e-18
    outer loop
      vertex -13.608761429008721 -6.293353340291235 1.9999999999999996
      vertex -13.5 -6.366025403784438 1.9999999999999996
      vertex -13.5 -6.366025403784438 0
    endloop
  endfacet
  facet normal 0.8314696123025418 0.5555702330196074 0
    outer loop
      vertex -13.793353340291235 -6.10876142900872 1.9999999999999996
      vertex -13.793353340291235 -6.10876142900872 0
      vertex -13.86602540378444 -6 1.9999999999999996
    endloop
  endfacet
  facet normal 0.8968727415326924 0.44228869021899275 0
    outer loop
      vertex -13.86602540378444 -6 1.9999999999999996
      vertex -13.86602540378444 -6 0
      vertex -13.923879532511286 -5.88268343236509 1.9999999999999996
    endloop
  endfacet
  facet normal 0.7518398074789816 0.6593458151000641 -3.4431929329327953e-19
    outer loop
      vertex -13.793353340291235 -6.10876142900872 1.9999999999999996
      vertex -13.707106781186548 -6.207106781186548 1.9999999999999996
      vertex -13.707106781186548 -6.207106781186548 0
    endloop
  endfacet
  facet normal 0.9469301294951054 0.32143946530316303 0
    outer loop
      vertex -13.923879532511286 -5.88268343236509 1.9999999999999996
      vertex -13.923879532511286 -5.88268343236509 0
      vertex -13.965925826289068 -5.758819045102521 1.9999999999999996
    endloop
  endfacet
  facet normal 0.9807852804032289 0.19509032201613535 0
    outer loop
      vertex -13.965925826289068 -5.758819045102521 1.9999999999999996
      vertex -13.965925826289068 -5.758819045102521 0
      vertex -13.991444861373811 -5.630526192220051 1.9999999999999996
    endloop
  endfacet
  facet normal 0.9978589232386037 0.06540312923013929 0
    outer loop
      vertex -13.991444861373811 -5.630526192220051 1.9999999999999996
      vertex -13.991444861373811 -5.630526192220051 0
      vertex -14 -5.5 1.9999999999999996
    endloop
  endfacet
  facet normal 0.32143946530316087 0.9469301294951059 0
    outer loop
      vertex -13.38268343236509 -6.423879532511287 1.9999999999999996
      vertex -13.25881904510252 -6.465925826289069 0
      vertex -13.38268343236509 -6.423879532511287 0
    endloop
  endfacet
  facet normal 0.44228869021900374 0.896872741532687 0
    outer loop
      vertex -13.5 -6.366025403784438 1.9999999999999996
      vertex -13.38268343236509 -6.423879532511287 0
      vertex -13.5 -6.366025403784438 0
    endloop
  endfacet
  facet normal 0.06540312923014605 0.9978589232386033 0
    outer loop
      vertex -13.130526192220051 -6.49144486137381 1.9999999999999996
      vertex -13 -6.5 0
      vertex -13.130526192220051 -6.49144486137381 0
    endloop
  endfacet
  facet normal 0.19509032201612364 0.9807852804032314 0
    outer loop
      vertex -13.25881904510252 -6.465925826289069 1.9999999999999996
      vertex -13.130526192220051 -6.49144486137381 0
      vertex -13.25881904510252 -6.465925826289069 0
    endloop
  endfacet
  facet normal 0.32143946530316087 0.9469301294951059 -1.5392853901399787e-18
    outer loop
      vertex -13.38268343236509 -6.423879532511287 1.9999999999999996
      vertex -13.25881904510252 -6.465925826289069 1.9999999999999996
      vertex -13.25881904510252 -6.465925826289069 0
    endloop
  endfacet
  facet normal 0.44228869021900374 0.896872741532687 0
    outer loop
      vertex -13.38268343236509 -6.423879532511287 1.9999999999999996
      vertex -13.38268343236509 -6.423879532511287 0
      vertex -13.5 -6.366025403784438 1.9999999999999996
    endloop
  endfacet
  facet normal 0.19509032201612364 0.9807852804032314 2.0180195968369753e-19
    outer loop
      vertex -13.25881904510252 -6.465925826289069 1.9999999999999996
      vertex -13.130526192220051 -6.49144486137381 1.9999999999999996
      vertex -13.130526192220051 -6.49144486137381 0
    endloop
  endfacet
  facet normal 0.06540312923014605 0.9978589232386033 2.870070732254584e-19
    outer loop
      vertex -13.130526192220051 -6.49144486137381 1.9999999999999996
      vertex -13 -6.5 1.9999999999999996
      vertex -13 -6.5 0
    endloop
  endfacet
  facet normal 1 0 0
    outer loop
      vertex -14 -5.5 1.9999999999999996
      vertex -14 -5.5 0
      vertex -14 5.5 1.9999999999999996
    endloop
  endfacet
  facet normal 0 1 0
    outer loop
      vertex -13 -6.5 1.9999999999999996
      vertex 13 -6.5 0
      vertex -13 -6.5 0
    endloop
  endfacet
  facet normal 1 0 0
    outer loop
      vertex -14 5.5 1.9999999999999996
      vertex -14 -5.5 0
      vertex -14 5.5 0
    endloop
  endfacet
  facet normal 0.9978589232386037 -0.06540312923013929 0
    outer loop
      vertex -13.991444861373811 5.630526192220051 1.9999999999999996
      vertex -14 5.5 0
      vertex -13.991444861373811 5.630526192220051 0
    endloop
  endfacet
  facet normal 0.9807852804032289 -0.19509032201613535 0
    outer loop
      vertex -13.965925826289068 5.758819045102521 1.9999999999999996
      vertex -13.991444861373811 5.630526192220051 0
      vertex -13.965925826289068 5.758819045102521 0
    endloop
  endfacet
  facet normal 0.9469301294951054 -0.32143946530316303 0
    outer loop
      vertex -13.923879532511286 5.88268343236509 1.9999999999999996
      vertex -13.965925826289068 5.758819045102521 0
      vertex -13.923879532511286 5.88268343236509 0
    endloop
  endfacet
  facet normal 0.8968727415326924 -0.44228869021899275 0
    outer loop
      vertex -13.86602540378444 6 1.9999999999999996
      vertex -13.923879532511286 5.88268343236509 0
      vertex -13.86602540378444 6 0
    endloop
  endfacet
  facet normal 0.8314696123025418 -0.5555702330196074 0
    outer loop
      vertex -13.793353340291235 6.10876142900872 1.9999999999999996
      vertex -13.86602540378444 6 0
      vertex -13.793353340291235 6.10876142900872 0
    endloop
  endfacet
  facet normal 0.7518398074789816 -0.6593458151000641 0
    outer loop
      vertex -13.707106781186548 6.207106781186548 1.9999999999999996
      vertex -13.793353340291235 6.10876142900872 0
      vertex -13.707106781186548 6.207106781186548 0
    endloop
  endfacet
  facet normal 0.6593458151000674 -0.7518398074789786 0
    outer loop
      vertex -13.608761429008721 6.293353340291235 1.9999999999999996
      vertex -13.707106781186548 6.207106781186548 0
      vertex -13.608761429008721 6.293353340291235 0
    endloop
  endfacet
  facet normal 0.5555702330195995 -0.8314696123025469 0
    outer loop
      vertex -13.5 6.366025403784438 1.9999999999999996
      vertex -13.608761429008721 6.293353340291235 0
      vertex -13.5 6.366025403784438 0
    endloop
  endfacet
  facet normal 0.9978589232386037 -0.06540312923013929 0
    outer loop
      vertex -14 5.5 1.9999999999999996
      vertex -14 5.5 0
      vertex -13.991444861373811 5.630526192220051 1.9999999999999996
    endloop
  endfacet
  facet normal 0.9807852804032289 -0.19509032201613535 0
    outer loop
      vertex -13.991444861373811 5.630526192220051 1.9999999999999996
      vertex -13.991444861373811 5.630526192220051 0
      vertex -13.965925826289068 5.758819045102521 1.9999999999999996
    endloop
  endfacet
  facet normal 0.9469301294951054 -0.32143946530316303 0
    outer loop
      vertex -13.965925826289068 5.758819045102521 1.9999999999999996
      vertex -13.965925826289068 5.758819045102521 0
      vertex -13.923879532511286 5.88268343236509 1.9999999999999996
    endloop
  endfacet
  facet normal 0.8968727415326924 -0.44228869021899275 0
    outer loop
      vertex -13.923879532511286 5.88268343236509 1.9999999999999996
      vertex -13.923879532511286 5.88268343236509 0
      vertex -13.86602540378444 6 1.9999999999999996
    endloop
  endfacet
  facet normal 0.8314696123025418 -0.5555702330196074 0
    outer loop
      vertex -13.86602540378444 6 1.9999999999999996
      vertex -13.86602540378444 6 0
      vertex -13.793353340291235 6.10876142900872 1.9999999999999996
    endloop
  endfacet
  facet normal 0.7518398074789816 -0.6593458151000641 0
    outer loop
      vertex -13.793353340291235 6.10876142900872 1.9999999999999996
      vertex -13.793353340291235 6.10876142900872 0
      vertex -13.707106781186548 6.207106781186548 1.9999999999999996
    endloop
  endfacet
  facet normal 0.6593458151000674 -0.7518398074789786 0
    outer loop
      vertex -13.707106781186548 6.207106781186548 1.9999999999999996
      vertex -13.707106781186548 6.207106781186548 0
      vertex -13.608761429008721 6.293353340291235 1.9999999999999996
    endloop
  endfacet
  facet normal 0.5555702330195995 -0.8314696123025469 0
    outer loop
      vertex -13.608761429008721 6.293353340291235 1.9999999999999996
      vertex -13.608761429008721 6.293353340291235 0
      vertex -13.5 6.366025403784438 1.9999999999999996
    endloop
  endfacet
  facet normal 0.44228869021900374 -0.896872741532687 0
    outer loop
      vertex -13.38268343236509 6.423879532511287 1.9999999999999996
      vertex -13.5 6.366025403784438 0
      vertex -13.38268343236509 6.423879532511287 0
    endloop
  endfacet
  facet normal 0.32143946530316087 -0.9469301294951059 0
    outer loop
      vertex -13.25881904510252 6.465925826289069 1.9999999999999996
      vertex -13.38268343236509 6.423879532511287 0
      vertex -13.25881904510252 6.465925826289069 0
    endloop
  endfacet
  facet normal 0.19509032201612364 -0.9807852804032314 0
    outer loop
      vertex -13.130526192220051 6.49144486137381 1.9999999999999996
      vertex -13.25881904510252 6.465925826289069 0
      vertex -13.130526192220051 6.49144486137381 0
    endloop
  endfacet
  facet normal 0.06540312923014605 -0.9978589232386033 0
    outer loop
      vertex -13 6.5 1.9999999999999996
      vertex -13.130526192220051 6.49144486137381 0
      vertex -13 6.5 0
    endloop
  endfacet
  facet normal 0.44228869021900374 -0.896872741532687 0
    outer loop
      vertex -13.5 6.366025403784438 1.9999999999999996
      vertex -13.5 6.366025403784438 0
      vertex -13.38268343236509 6.423879532511287 1.9999999999999996
    endloop
  endfacet
  facet normal 0.32143946530316087 -0.9469301294951059 0
    outer loop
      vertex -13.38268343236509 6.423879532511287 1.9999999999999996
      vertex -13.38268343236509 6.423879532511287 0
      vertex -13.25881904510252 6.465925826289069 1.9999999999999996
    endloop
  endfacet
  facet normal 0.19509032201612364 -0.9807852804032314 0
    outer loop
      vertex -13.25881904510252 6.465925826289069 1.9999999999999996
      vertex -13.25881904510252 6.465925826289069 0
      vertex -13.130526192220051 6.49144486137381 1.9999999999999996
    endloop
  endfacet
  facet normal 0.06540312923014605 -0.9978589232386033 0
    outer loop
      vertex -13.130526192220051 6.49144486137381 1.9999999999999996
      vertex -13.130526192220051 6.49144486137381 0
      vertex -13 6.5 1.9999999999999996
    endloop
  endfacet
  facet normal 0 -1 0
    outer loop
      vertex -13 6.5 1.9999999999999996
      vertex -13 6.5 0
      vertex 13 6.5 1.9999999999999996
    endloop
  endfacet
  facet normal 0 1 0
    outer loop
      vertex -13 -6.5 1.9999999999999996
      vertex 13 -6.5 1.9999999999999996
      vertex 13 -6.5 0
    endloop
  endfacet
  facet normal -0.06540312923014605 0.9978589232386033 0
    outer loop
      vertex 13 -6.5 1.9999999999999996
      vertex 13.130526192220051 -6.49144486137381 0
      vertex 13 -6.5 0
    endloop
  endfacet
  facet normal -0.19509032201612364 0.9807852804032314 0
    outer loop
      vertex 13.130526192220051 -6.49144486137381 1.9999999999999996
      vertex 13.25881904510252 -6.465925826289069 0
      vertex 13.130526192220051 -6.49144486137381 0
    endloop
  endfacet
  facet normal -0.32143946530316087 0.9469301294951059 0
    outer loop
      vertex 13.25881904510252 -6.465925826289069 1.9999999999999996
      vertex 13.38268343236509 -6.423879532511287 0
      vertex 13.25881904510252 -6.465925826289069 0
    endloop
  endfacet
  facet normal -0.44228869021900374 0.896872741532687 0
    outer loop
      vertex 13.38268343236509 -6.423879532511287 1.9999999999999996
      vertex 13.5 -6.366025403784438 0
      vertex 13.38268343236509 -6.423879532511287 0
    endloop
  endfacet
  facet normal -0.06540312923014605 0.9978589232386033 -2.870070732254584e-19
    outer loop
      vertex 13 -6.5 1.9999999999999996
      vertex 13.130526192220051 -6.49144486137381 1.9999999999999996
      vertex 13.130526192220051 -6.49144486137381 0
    endloop
  endfacet
  facet normal -0.19509032201612364 0.9807852804032314 -2.0180195968369753e-19
    outer loop
      vertex 13.130526192220051 -6.49144486137381 1.9999999999999996
      vertex 13.25881904510252 -6.465925826289069 1.9999999999999996
      vertex 13.25881904510252 -6.465925826289069 0
    endloop
  endfacet
  facet normal -0.32143946530316087 0.9469301294951059 1.5392853901399787e-18
    outer loop
      vertex 13.25881904510252 -6.465925826289069 1.9999999999999996
      vertex 13.38268343236509 -6.423879532511287 1.9999999999999996
      vertex 13.38268343236509 -6.423879532511287 0
    endloop
  endfacet
  facet normal -0.44228869021900374 0.896872741532687 8.745612364842878e-19
    outer loop
      vertex 13.38268343236509 -6.423879532511287 1.9999999999999996
      vertex 13.5 -6.366025403784438 1.9999999999999996
      vertex 13.5 -6.366025403784438 0
    endloop
  endfacet
  facet normal -0.5555702330195995 0.8314696123025469 0
    outer loop
      vertex 13.5 -6.366025403784438 1.9999999999999996
      vertex 13.608761429008721 -6.293353340291235 0
      vertex 13.5 -6.366025403784438 0
    endloop
  endfacet
  facet normal -0.6593458151000674 0.7518398074789786 0
    outer loop
      vertex 13.608761429008721 -6.293353340291235 1.9999999999999996
      vertex 13.707106781186548 -6.207106781186548 0
      vertex 13.608761429008721 -6.293353340291235 0
    endloop
  endfacet
  facet normal -0.7518398074789816 0.6593458151000641 0
    outer loop
      vertex 13.707106781186548 -6.207106781186548 1.9999999999999996
      vertex 13.793353340291235 -6.10876142900872 0
      vertex 13.707106781186548 -6.207106781186548 0
    endloop
  endfacet
  facet normal -0.8314696123025418 0.5555702330196074 0
    outer loop
      vertex 13.793353340291235 -6.10876142900872 1.9999999999999996
      vertex 13.86602540378444 -6 0
      vertex 13.793353340291235 -6.10876142900872 0
    endloop
  endfacet
  facet normal -0.8968727415326924 0.44228869021899275 0
    outer loop
      vertex 13.86602540378444 -6 1.9999999999999996
      vertex 13.923879532511286 -5.88268343236509 0
      vertex 13.86602540378444 -6 0
    endloop
  endfacet
  facet normal -0.9469301294951054 0.32143946530316303 0
    outer loop
      vertex 13.923879532511286 -5.88268343236509 1.9999999999999996
      vertex 13.965925826289068 -5.758819045102521 0
      vertex 13.923879532511286 -5.88268343236509 0
    endloop
  endfacet
  facet normal -0.9807852804032289 0.19509032201613535 0
    outer loop
      vertex 13.965925826289068 -5.758819045102521 1.9999999999999996
      vertex 13.991444861373811 -5.630526192220051 0
      vertex 13.965925826289068 -5.758819045102521 0
    endloop
  endfacet
  facet normal -0.9978589232386037 0.06540312923013929 0
    outer loop
      vertex 13.991444861373811 -5.630526192220051 1.9999999999999996
      vertex 14 -5.5 0
      vertex 13.991444861373811 -5.630526192220051 0
    endloop
  endfacet
  facet normal -0.5555702330195995 0.8314696123025469 3.1018587441062766e-18
    outer loop
      vertex 13.5 -6.366025403784438 1.9999999999999996
      vertex 13.608761429008721 -6.293353340291235 1.9999999999999996
      vertex 13.608761429008721 -6.293353340291235 0
    endloop
  endfacet
  facet normal -0.6593458151000674 0.7518398074789786 -7.049410036756517e-19
    outer loop
      vertex 13.608761429008721 -6.293353340291235 1.9999999999999996
      vertex 13.707106781186548 -6.207106781186548 1.9999999999999996
      vertex 13.707106781186548 -6.207106781186548 0
    endloop
  endfacet
  facet normal -0.7518398074789816 0.6593458151000641 3.4431929329327953e-19
    outer loop
      vertex 13.707106781186548 -6.207106781186548 1.9999999999999996
      vertex 13.793353340291235 -6.10876142900872 1.9999999999999996
      vertex 13.793353340291235 -6.10876142900872 0
    endloop
  endfacet
  facet normal -0.8314696123025418 0.5555702330196074 -3.6108875806656084e-19
    outer loop
      vertex 13.793353340291235 -6.10876142900872 1.9999999999999996
      vertex 13.86602540378444 -6 1.9999999999999996
      vertex 13.86602540378444 -6 0
    endloop
  endfacet
  facet normal -0.8968727415326924 0.44228869021899275 -1.811877145761679e-21
    outer loop
      vertex 13.86602540378444 -6 1.9999999999999996
      vertex 13.923879532511286 -5.88268343236509 1.9999999999999996
      vertex 13.923879532511286 -5.88268343236509 0
    endloop
  endfacet
  facet normal -0.9469301294951054 0.32143946530316303 1.3555937653597303e-18
    outer loop
      vertex 13.923879532511286 -5.88268343236509 1.9999999999999996
      vertex 13.965925826289068 -5.758819045102521 1.9999999999999996
      vertex 13.965925826289068 -5.758819045102521 0
    endloop
  endfacet
  facet normal -0.9807852804032289 0.19509032201613535 -6.153882901067702e-19
    outer loop
      vertex 13.965925826289068 -5.758819045102521 1.9999999999999996
      vertex 13.991444861373811 -5.630526192220051 1.9999999999999996
      vertex 13.991444861373811 -5.630526192220051 0
    endloop
  endfacet
  facet normal -0.9978589232386037 0.06540312923013929 1.529237865127607e-20
    outer loop
      vertex 13.991444861373811 -5.630526192220051 1.9999999999999996
      vertex 14 -5.5 1.9999999999999996
      vertex 14 -5.5 0
    endloop
  endfacet
  facet normal -1 0 0
    outer loop
      vertex 14 -5.5 1.9999999999999996
      vertex 14 5.5 0
      vertex 14 -5.5 0
    endloop
  endfacet
  facet normal 0 -1 0
    outer loop
      vertex 13 6.5 1.9999999999999996
      vertex -13 6.5 0
      vertex 13 6.5 0
    endloop
  endfacet
  facet normal -1 0 0
    outer loop
      vertex 14 -5.5 1.9999999999999996
      vertex 14 5.5 1.9999999999999996
      vertex 14 5.5 0
    endloop
  endfacet
  facet normal -0.19509032201612364 -0.9807852804032314 0
    outer loop
      vertex 13.25881904510252 6.465925826289069 1.9999999999999996
      vertex 13.130526192220051 6.49144486137381 0
      vertex 13.25881904510252 6.465925826289069 0
    endloop
  endfacet
  facet normal -0.06540312923014605 -0.9978589232386033 0
    outer loop
      vertex 13.130526192220051 6.49144486137381 1.9999999999999996
      vertex 13 6.5 0
      vertex 13.130526192220051 6.49144486137381 0
    endloop
  endfacet
  facet normal -0.44228869021900374 -0.896872741532687 0
    outer loop
      vertex 13.5 6.366025403784438 1.9999999999999996
      vertex 13.38268343236509 6.423879532511287 0
      vertex 13.5 6.366025403784438 0
    endloop
  endfacet
  facet normal -0.32143946530316087 -0.9469301294951059 0
    outer loop
      vertex 13.38268343236509 6.423879532511287 1.9999999999999996
      vertex 13.25881904510252 6.465925826289069 0
      vertex 13.38268343236509 6.423879532511287 0
    endloop
  endfacet
  facet normal -0.06540312923014605 -0.9978589232386033 0
    outer loop
      vertex 13 6.5 1.9999999999999996
      vertex 13 6.5 0
      vertex 13.130526192220051 6.49144486137381 1.9999999999999996
    endloop
  endfacet
  facet normal -0.19509032201612364 -0.9807852804032314 0
    outer loop
      vertex 13.130526192220051 6.49144486137381 1.9999999999999996
      vertex 13.130526192220051 6.49144486137381 0
      vertex 13.25881904510252 6.465925826289069 1.9999999999999996
    endloop
  endfacet
  facet normal -0.44228869021900374 -0.896872741532687 0
    outer loop
      vertex 13.38268343236509 6.423879532511287 1.9999999999999996
      vertex 13.38268343236509 6.423879532511287 0
      vertex 13.5 6.366025403784438 1.9999999999999996
    endloop
  endfacet
  facet normal -0.32143946530316087 -0.9469301294951059 0
    outer loop
      vertex 13.25881904510252 6.465925826289069 1.9999999999999996
      vertex 13.25881904510252 6.465925826289069 0
      vertex 13.38268343236509 6.423879532511287 1.9999999999999996
    endloop
  endfacet
  facet normal -0.9978589232386037 -0.06540312923013929 0
    outer loop
      vertex 14 5.5 1.9999999999999996
      vertex 13.991444861373811 5.630526192220051 0
      vertex 14 5.5 0
    endloop
  endfacet
  facet normal -0.9807852804032289 -0.19509032201613535 0
    outer loop
      vertex 13.991444861373811 5.630526192220051 1.9999999999999996
      vertex 13.965925826289068 5.758819045102521 0
      vertex 13.991444861373811 5.630526192220051 0
    endloop
  endfacet
  facet normal -0.8968727415326924 -0.44228869021899275 0
    outer loop
      vertex 13.923879532511286 5.88268343236509 1.9999999999999996
      vertex 13.86602540378444 6 0
      vertex 13.923879532511286 5.88268343236509 0
    endloop
  endfacet
  facet normal -0.9469301294951054 -0.32143946530316303 0
    outer loop
      vertex 13.965925826289068 5.758819045102521 1.9999999999999996
      vertex 13.923879532511286 5.88268343236509 0
      vertex 13.965925826289068 5.758819045102521 0
    endloop
  endfacet
  facet normal -0.7518398074789816 -0.6593458151000641 0
    outer loop
      vertex 13.793353340291235 6.10876142900872 1.9999999999999996
      vertex 13.707106781186548 6.207106781186548 0
      vertex 13.793353340291235 6.10876142900872 0
    endloop
  endfacet
  facet normal -0.6593458151000674 -0.7518398074789786 0
    outer loop
      vertex 13.707106781186548 6.207106781186548 1.9999999999999996
      vertex 13.608761429008721 6.293353340291235 0
      vertex 13.707106781186548 6.207106781186548 0
    endloop
  endfacet
  facet normal -0.8314696123025418 -0.5555702330196074 0
    outer loop
      vertex 13.86602540378444 6 1.9999999999999996
      vertex 13.793353340291235 6.10876142900872 0
      vertex 13.86602540378444 6 0
    endloop
  endfacet
  facet normal -0.5555702330195995 -0.8314696123025469 0
    outer loop
      vertex 13.608761429008721 6.293353340291235 1.9999999999999996
      vertex 13.5 6.366025403784438 0
      vertex 13.608761429008721 6.293353340291235 0
    endloop
  endfacet
  facet normal -0.9978589232386037 -0.06540312923013929 0
    outer loop
      vertex 13.991444861373811 5.630526192220051 1.9999999999999996
      vertex 13.991444861373811 5.630526192220051 0
      vertex 14 5.5 1.9999999999999996
    endloop
  endfacet
  facet normal -0.9807852804032289 -0.19509032201613535 6.153882901067702e-19
    outer loop
      vertex 13.991444861373811 5.630526192220051 1.9999999999999996
      vertex 13.965925826289068 5.758819045102521 1.9999999999999996
      vertex 13.965925826289068 5.758819045102521 0
    endloop
  endfacet
  facet normal -0.9469301294951054 -0.32143946530316303 -1.3555937653597303e-18
    outer loop
      vertex 13.965925826289068 5.758819045102521 1.9999999999999996
      vertex 13.923879532511286 5.88268343236509 1.9999999999999996
      vertex 13.923879532511286 5.88268343236509 0
    endloop
  endfacet
  facet normal -0.7518398074789816 -0.6593458151000641 0
    outer loop
      vertex 13.707106781186548 6.207106781186548 1.9999999999999996
      vertex 13.707106781186548 6.207106781186548 0
      vertex 13.793353340291235 6.10876142900872 1.9999999999999996
    endloop
  endfacet
  facet normal -0.8968727415326924 -0.44228869021899275 1.811877145761679e-21
    outer loop
      vertex 13.923879532511286 5.88268343236509 1.9999999999999996
      vertex 13.86602540378444 6 1.9999999999999996
      vertex 13.86602540378444 6 0
    endloop
  endfacet
  facet normal -0.8314696123025418 -0.5555702330196074 3.6108875806656084e-19
    outer loop
      vertex 13.86602540378444 6 1.9999999999999996
      vertex 13.793353340291235 6.10876142900872 1.9999999999999996
      vertex 13.793353340291235 6.10876142900872 0
    endloop
  endfacet
  facet normal -0.5555702330195995 -0.8314696123025469 -3.1018587441062766e-18
    outer loop
      vertex 13.608761429008721 6.293353340291235 1.9999999999999996
      vertex 13.5 6.366025403784438 1.9999999999999996
      vertex 13.5 6.366025403784438 0
    endloop
  endfacet
  facet normal -0.6593458151000674 -0.7518398074789786 7.049410036756517e-19
    outer loop
      vertex 13.707106781186548 6.207106781186548 1.9999999999999996
      vertex 13.608761429008721 6.293353340291235 1.9999999999999996
      vertex 13.608761429008721 6.293353340291235 0
    endloop
  endfacet
endsolid OpenSCAD_Model
